<?xml version="1.0" encoding="utf-8"?>
<!-- Generator: Adobe Illustrator 22.1.0, SVG Export Plug-In . SVG Version: 6.00 Build 0)  -->
<svg version="1.1" id="Layer_1" xmlns="http://www.w3.org/2000/svg" xmlns:xlink="http://www.w3.org/1999/xlink" x="0px" y="0px"
	 viewBox="0 0 1000 1000" style="enable-background:new 0 0 1000 1000;" xml:space="preserve">
<style type="text/css">
	.st0{fill:#F9F9F9;}
	.st1{fill:#C09761;}
</style>
<g>
	<g>
		<path class="st0" d="M637.6,364.3l-13.8,142.6C623.7,506.9,617.2,414.3,637.6,364.3z"/>
		<path class="st0" d="M643.2,517.3c-33.2,50.2-71.5,46.5-71.5,46.5c43.2-17.8,58.9-46.7,63.8-59l19.4-188.7
			c-37.5,23.9-74.3,9.5-74.3,9.5c54.8,0.5,75.9-25.2,75.9-25.2S527,176.4,368.2,292c0,0,11.3,12.7,56.8,14.8c0,0-32.9,7.2-55.7-2.8
			l1.4,15c8.9,5.4,23.2,12.1,38.6,11.8c0,0-20.6,4.3-38.1-5.7l17.4,192.3c9.6,5.9,37.1,21.8,59.2,26.7c0,0-26.7,5.9-69.3-21.2
			c-32.5-0.2-123.4,5.2-25.6,79.7c0,0,151.8,103.1,313.4,0C666.3,602.6,786.5,511.7,643.2,517.3z"/>
		<path class="st0" d="M560.3,695.9c-31.9-36-51.2-2.6-51.2-2.6s-19.3-33.4-51.2,2.6c0,0-34.5,55.4-81,2.6
			c0,0,50.7,121.8,132.1,22.8c81.5,99,132.1-22.8,132.1-22.8C594.7,751.3,560.3,695.9,560.3,695.9z M406.2,736
			c25,26.7,65.5,12.5,65.5,12.5C429.6,769.1,406.2,736,406.2,736z M455.6,711.9c25.4-40.4,46.7-10.4,46.7-10.4
			C479.3,682.3,455.6,711.9,455.6,711.9z M514.8,701.5c0,0,21.2-29.9,46.7,10.4C561.5,711.9,537.8,682.3,514.8,701.5z M545.5,748.5
			c0,0,40.5,14.2,65.5-12.5C610.9,736,587.5,769.1,545.5,748.5z"/>
	</g>
	<g>
		<path class="st0" d="M63.6,349.7c0.9-0.9,1.7-1.9,2.4-2.9c0.7-1.1,1.3-2.1,1.8-3c0.6-1,1.1-2,1.5-3.1c1.4-3.6,1.9-7,1.5-10.1
			c-0.4-3.1-1-6.3-1.8-9.5c-0.8-3.2-1.4-6.4-1.8-9.8c-0.4-3.4,0.2-7,1.7-10.9c2-5.3,4.6-8.7,7.7-10.3c3.1-1.6,5.9-1.9,8.5-1
			c2.6,0.9,4.6,2.7,6.1,5.4c1.5,2.7,1.6,5.7,0.4,8.9c-0.6,1.7-1.5,2.9-2.6,3.8c-1.1,0.9-2.1,1.4-3.1,1.6c-1,0.2-1.9,0-2.6-0.5
			c-0.7-0.5-1.1-1.3-1.1-2.3c0-0.9-0.2-1.6-0.7-2.2c-0.5-0.6-1-1-1.6-1.2c-0.6-0.2-1.2-0.2-1.8,0c-0.6,0.2-1.1,0.8-1.4,1.6
			c-1.1,2.7-1.2,5.4-0.4,8.1c0.8,2.7,1.9,5.1,3.5,7.3c1.6,2.2,3.2,4.1,5.1,5.7c1.8,1.5,3.3,2.5,4.3,2.9l94.7,36.6
			c2-1,4.5-2.8,7.6-5.3c3.1-2.5,6.3-5.4,9.6-8.7c3.3-3.3,6.4-6.9,9.3-10.7c2.9-3.8,5.1-7.6,6.5-11.5c1.5-3.9,1.9-7.6,1.3-11
			c-0.7-3.4-2.9-6.3-6.8-8.7c-0.7-0.4-1.2-0.9-1.3-1.4c-0.1-0.5-0.1-1.1,0.2-1.9c2-3.3,4.8-5,8.4-5.3c3.5-0.3,6.8,0.8,9.6,3.2
			c2.9,2.5,4.9,6.2,6,11.3c1.1,5.1,0.3,11.4-2.5,19c-2.5,6.4-5.7,11.7-9.8,15.7c-4,4-8.1,7.5-12.2,10.4c-4.1,2.9-7.9,5.6-11.3,8.1
			c-3.4,2.5-5.8,5.4-7.1,8.9c-1.3,3.4-2.1,6.8-2.2,10.1c-0.2,3.3-0.1,6.4,0.2,9.2c0.3,2.8,0.6,5.2,0.9,7.3c0.3,2.1,0.3,3.6,0,4.4
			c-0.8,2-1.6,2.8-2.6,2.5c-1-0.3-1.5-0.7-1.5-1.4c-0.5-4.1-1.7-8-3.6-11.7c-1.8-3.7-4-7-6.6-10.1c-2.6-3-5.4-5.6-8.4-7.8
			c-3-2.2-6-3.8-8.9-5l-68.7-26.6c-3.9-1.5-7.1-2.2-9.6-2.1c-2.5,0.1-4.6,0.6-6.4,1.4c-1.7,0.8-3.2,1.8-4.3,3
			c-1.2,1.1-2.4,1.9-3.7,2.4c-0.8,0.4-1.5,0.1-2.1-0.6c-0.4-0.5-0.4-1-0.2-1.6C63.3,350,63.4,349.8,63.6,349.7z"/>
		<path class="st0" d="M218.5,287.7c0.7-0.3,1.2-0.3,1.4,0.1c0.3,0.4,0.3,0.7,0.2,0.9l-14.4,23.4c-0.2,0.3-0.5,0.3-1,0.2
			c-0.5-0.1-0.7-0.5-0.6-1.2c0.1-1.3-0.3-2.4-1-3.4c-0.7-0.9-1.7-1.7-3-2.4c-1.3-0.6-2.6-1.2-4-1.6c-1.4-0.4-2.7-0.8-3.9-1.2
			l-19.7,16.8l9,11.2c1.1,1.2,2.2,2,3.2,2.4s1.9,0.7,2.7,0.7c0.8,0,1.5,0,2.1-0.2c0.6-0.2,1-0.3,1.2-0.5c0.5-0.3,1-0.3,1.3,0.1
			c0.3,0.3,0.4,0.6,0.3,0.9l-10.8,17.5c-0.2,0.4-0.5,0.5-0.9,0.3c-0.4-0.1-0.6-0.6-0.7-1.3c0-0.4,0-0.9,0.1-1.6
			c0.1-0.7,0-1.6-0.2-2.6c-0.2-1-0.6-2.2-1.2-3.7c-0.6-1.4-1.7-3-3.1-4.8l-40.9-50.1c-1.1-1-2-1.4-2.8-1.2c-0.8,0.3-1.5,0.5-2.2,0.7
			c-0.8,0.3-1.3,0.2-1.6-0.1c-0.3-0.4-0.3-0.7-0.2-0.9l13-21.2c0.2-0.4,0.5-0.5,0.9-0.3c0.4,0.1,0.7,0.6,0.8,1.4
			c0.2,1.1,0.4,2,0.7,2.6c0.3,0.6,1.3,1.1,3,1.6l59.7,18c2.3,0.5,4.1,0.8,5.6,0.8c1.5,0,2.6,0,3.5-0.2c0.9-0.2,1.6-0.4,2.1-0.6
			C217.7,288,218.1,287.8,218.5,287.7z M165.9,311.5l14.7-12.6l-33-9.9L165.9,311.5z"/>
		<path class="st0" d="M213.2,185.5c1.5,0.7,3.7,1.7,6.6,3.1c2.9,1.4,5.3,2.6,7.4,3.6c1.1,0.6,1.6,1.2,1.5,1.8
			c0,0.6-0.3,1.2-0.8,1.7c-0.4,0.5-1,0.8-1.6,1.1c-0.6,0.3-1.1,0.4-1.4,0.4c-0.9,0-2.1-0.2-3.5-0.6c-1.5-0.4-3.2-0.7-5.1-0.6
			c-2,0-4.1,0.5-6.4,1.4c-2.3,0.9-4.8,2.7-7.4,5.5l-1.7,1.8l44.3,42.1c2.1,2,3.9,3.1,5.2,3.2c1.3,0.1,2.4,0,3.2-0.2
			c0.7-0.3,1.2-0.3,1.4,0.2c0.2,0.4,0.2,0.8-0.1,1.1l-17.4,18.3c-0.2,0.2-0.6,0.3-1.1,0.1c-0.5-0.2-0.6-0.6-0.3-1.4
			c0.2-0.8,0.2-1.9,0-3.2c-0.2-1.3-1.3-3-3.5-5l-44.3-42.1l-1.6,1.7c-2.6,2.7-4.3,5.3-5.1,7.7c-0.8,2.4-1.2,4.6-1.1,6.5
			c0.1,2,0.4,3.7,0.9,5.1c0.5,1.4,0.8,2.6,0.8,3.5c0,0.3-0.1,0.8-0.4,1.4c-0.2,0.6-0.6,1.2-1,1.6c-0.5,0.5-1.1,0.8-1.6,0.8
			c-0.6,0-1.2-0.5-1.8-1.5c-0.6-1-1.3-2.2-2-3.4c-0.7-1.2-1.4-2.5-2.1-3.7c-0.7-1.2-1.4-2.4-2-3.6c-0.6-1.2-1.1-2.1-1.5-2.7
			c-0.8-1.5-1.3-2.6-1.5-3.4c-0.2-0.8,0-1.6,0.7-2.4l38.5-40.6c0.6-0.7,1.4-0.9,2.2-0.7C210.5,184.4,211.7,184.8,213.2,185.5z"/>
		<path class="st0" d="M273.9,228.8c0.4-0.7,0.7-1.7,0.8-3c0.1-1.3-0.7-3.2-2.4-5.6l-35.7-51.3c-1-1.5-2.1-2.2-3.2-2.3
			c-1.1-0.1-2.1-0.1-2.9-0.2c-0.8-0.1-1.3-0.3-1.4-0.8c-0.1-0.4,0-0.7,0.2-0.9l20.8-14.4c0.3-0.2,0.7-0.2,1,0.1
			c0.3,0.3,0.4,0.8,0.2,1.6c-0.1,0.7-0.4,1.6-0.8,2.7c-0.4,1.1-0.1,2.4,0.9,3.8l16.5,23.7l21.7-6.7l-20.4-29.4
			c-1-1.5-2.1-2.2-3.3-2.2c-1.2,0-2.1-0.1-2.8-0.2c-0.8-0.1-1.3-0.3-1.5-0.7c-0.2-0.4-0.1-0.7,0.3-1l20.8-14.4
			c0.3-0.2,0.6-0.1,0.9,0.1c0.4,0.3,0.4,0.8,0.2,1.6c-0.2,0.8-0.5,1.7-0.8,2.8c-0.3,1.1,0,2.3,1,3.8l35.7,51.3
			c1.7,2.4,3.2,3.8,4.4,4.2c1.3,0.4,2.3,0.5,3.1,0.3c0.8-0.1,1.3,0.1,1.4,0.6c0.1,0.5,0,0.8-0.2,1l-20.8,14.4
			c-0.3,0.2-0.7,0.2-1.1-0.1c-0.4-0.3-0.4-0.8-0.1-1.6c0.4-0.7,0.7-1.7,0.8-3c0.1-1.3-0.7-3.2-2.4-5.6l-9.1-13l-21.8,6.6l13.1,18.8
			c1.7,2.4,3.2,3.8,4.4,4.2c1.3,0.4,2.3,0.5,3.1,0.3c0.8-0.1,1.3,0.1,1.5,0.6c0.1,0.5,0,0.8-0.3,1.1l-20.8,14.4
			c-0.3,0.2-0.6,0.1-1-0.1C273.6,230,273.6,229.5,273.9,228.8z"/>
		<path class="st0" d="M383.2,149.9c1-0.4,1.9-0.4,2.7,0.1c0.8,0.5,1.2,1.4,1.1,2.7l-1.1,10.9c-0.1,2.2-1.2,3.8-3.3,4.7l-47.5,20.8
			c-0.3,0.1-0.6,0-1-0.4c-0.4-0.4-0.3-0.9,0.2-1.5c0.5-0.7,0.9-1.7,1.3-3c0.3-1.3-0.1-3.3-1.2-6L309.4,121c-0.7-1.5-1.6-2.4-2.6-2.7
			c-1.1-0.3-2-0.5-2.8-0.7c-0.8-0.2-1.2-0.6-1.2-1c0-0.4,0.1-0.7,0.4-0.9l45.8-20c2.1-0.9,4-0.7,5.7,0.6l9.3,7.6
			c0.9,0.8,1.3,1.7,1.2,2.7c-0.2,0.9-0.7,1.6-1.7,2l-4.9,2.1c-1.3,0.6-2.5,0.7-3.5,0.2c-1-0.4-2.9-1.2-5.6-2.3
			c-1.6-0.7-3.2-0.9-4.9-0.7c-1.7,0.2-3.3,0.7-5,1.4l-13,5.7l11,25c0.1-1.6,0.5-3.3,1.3-4.9c0.7-1.3,1.7-2.7,3-4.1
			c1.3-1.4,3.2-2.7,5.6-3.7c3.5-1.6,6.6-1.9,9.3-1c2.6,0.9,4.6,2.4,6,4.5c1.4,2.1,2.1,4.5,2.1,7.2c0,2.7-0.9,5.2-2.6,7.3
			c-0.1,0-0.2,0.1-0.2,0.2c0,0.1-0.1,0.1-0.3,0.2c-0.2,0.1-0.4,0.1-0.7,0c-0.4-0.1-0.7-0.3-0.9-0.8c-0.4-3-1.6-4.9-3.5-5.8
			c-1.9-0.8-3.8-0.8-5.7,0c-1.2,0.5-2.4,1.4-3.5,2.6c-1.1,1.2-1.9,2.7-2.5,4.5c-0.6,1.8-0.8,3.8-0.7,6.1c0.1,2.3,0.8,4.8,2,7.5
			l0.1,0.3c0.6,1.4,1.3,2.9,2.1,4.5c0.8,1.5,1.7,2.9,2.8,4.1c1.1,1.2,2.3,2,3.8,2.4c1.4,0.4,3.1,0.2,5-0.7l6.6-2.9
			c3.5-1.5,5.8-4,7-7.5c1.1-2.8,1.8-4.6,2.1-5.6c0.3-1,1.1-1.8,2.5-2.4L383.2,149.9z"/>
		<path class="st0" d="M451.6,127.4c1.8,0.8,3.3,2.2,4.4,4.4c1.2,2.1,1.7,4.5,1.6,7c-0.1,2.5-1.1,4.9-3,7.2c-1.8,2.3-5,3.9-9.4,4.9
			c-3.3,0.7-6,0.7-8.2-0.1c-2.2-0.8-4-2-5.5-3.7c-1.5-1.7-2.8-3.6-3.9-5.8c-1.1-2.2-2.2-4.4-3.3-6.6c-1.1-2.2-2.3-4.2-3.7-5.9
			c-1.4-1.8-3.1-3.1-5.1-3.9l-3.5,0.8l4.8,21.3c0.6,2.9,1.5,4.7,2.5,5.5c1,0.8,2,1.4,2.8,1.6c0.8,0.1,1.1,0.5,1,1
			c-0.1,0.5-0.3,0.8-0.6,0.9l-24.8,5.6c-0.3,0.1-0.6-0.1-0.9-0.5c-0.3-0.4-0.1-0.9,0.5-1.3c0.6-0.6,1.2-1.5,1.8-2.7
			c0.6-1.2,0.6-3.2-0.1-6.1l-13.7-61c-0.4-1.6-1.1-2.7-2.1-3.2c-1-0.5-1.9-0.9-2.6-1.3c-0.7-0.4-1.1-0.8-1-1.2
			c0.1-0.4,0.2-0.7,0.6-0.8L414,76c5.3-1.2,9.9-1.2,13.8,0.1c3.9,1.3,7.1,3.3,9.6,6c2.5,2.7,4.2,5.9,5.1,9.6
			c0.9,3.7,1.1,7.4,0.5,11.2c-0.6,3.7-2,7.3-4.3,10.5c-2.3,3.3-5.4,5.9-9.4,7.7c0.5,0.6,1,1.3,1.5,2c0.5,0.7,1.1,1.5,1.6,2.3
			c2.2,3.5,4.3,5.7,6.5,6.7c2.1,1,4.1,1.3,5.8,0.9c1.2-0.3,2.3-0.8,3.1-1.7c0.8-0.8,1.3-1.7,1.4-2.6c0.1-0.8,0.6-1.3,1.3-1.4
			C450.8,127.3,451.2,127.3,451.6,127.4z M416.1,115.6c3.1-0.7,5.5-2,7.3-4c1.8-2,3-4.1,3.7-6.5c0.6-2.4,0.7-4.9,0.3-7.6
			c-0.4-2.6-1.3-4.9-2.7-6.9c-1.4-1.9-3.3-3.4-5.8-4.4c-2.5-1-5.4-1.1-8.6-0.4l-6.6,1.5l6.6,29.6L416.1,115.6z"/>
		<path class="st0" d="M572.4,82.2c1.7,0.9,2.8,2.3,3.3,4.4c0.5,2.1,0.2,4.2-1,6.5c-1.1,2.2-3,4.2-5.8,6c-2.8,1.8-6.6,2.8-11.4,3.1
			c3.5,0.3,6.5,1.6,8.8,4c2.3,2.4,3.8,5.4,4.5,8.8c0.7,3.4,0.7,7.1-0.3,10.9c-0.9,3.9-2.8,7.4-5.8,10.5c-2.9,3.1-6.8,5.7-11.8,7.5
			c-4.9,1.9-11,2.6-18.2,2c-9.1-0.7-16.2-3-21.4-7c-5.2-4-8.4-8.6-9.7-13.9c-1.3-5.2-0.6-10.7,2-16.2c2.6-5.6,7.2-10.2,13.8-13.9
			c-4.1-3.2-6.5-7.2-7.3-11.9c-0.8-4.7-0.2-9.1,1.9-13.2c2.1-4.1,5.6-7.6,10.4-10.4c4.8-2.8,10.8-3.9,18.1-3.4
			c6,0.4,10.7,1.6,14.2,3.6c3.5,1.9,6,4.3,7.5,6.9c1.5,2.7,2.1,5.5,1.9,8.4c-0.2,2.9-1.1,5.6-2.7,8.1c-1.6,2.5-3.7,4.4-6.3,5.9
			c-2.6,1.5-5.5,2.1-8.7,1.9c-1.8-0.1-3.4-0.6-4.8-1.5c-0.7-0.6-1-1.2-0.8-1.8c0.1-0.7,0.5-1.2,1.2-1.5c3-0.7,5.1-2.2,6.4-4.6
			c1.3-2.3,1.7-4.8,1.4-7.4c-0.3-2.6-1.4-4.9-3.3-7c-1.8-2.1-4.4-3.2-7.6-3.5c-3.8-0.3-6.8,0.8-9.1,3.3c-2.3,2.5-3.7,5.4-4.3,8.9
			c-0.6,3.5-0.2,7,1,10.6c1.3,3.6,3.5,6.5,6.8,8.6c0.6,0.4,0.9,0.9,0.8,1.6c0,0.6-0.5,1.1-1.2,1.5c-3,0.8-5.6,2.3-7.9,4.5
			c-2.3,2.2-4,4.7-5.2,7.5c-1.2,2.8-1.9,5.7-2.1,8.7c-0.2,3,0.3,5.8,1.3,8.4c1.1,2.6,2.8,4.8,5.1,6.6c2.3,1.8,5.4,2.8,9.3,3.1
			c3.1,0.2,5.8-0.3,8-1.6c2.2-1.3,4-3,5.4-5c1.4-2,2.4-4.3,2.9-6.9c0.5-2.5,0.6-4.9,0.3-7.1c-0.3-2.2-1-4-2.1-5.6
			c-1.1-1.6-2.6-2.4-4.6-2.6c-1.8-0.1-3.2,0.3-4.2,1.3c-1,1-1.6,2.2-1.8,3.6c-0.2,1.4,0,2.8,0.8,4.2c0.7,1.4,1.9,2.5,3.5,3.1
			c0.7,0.3,1,0.8,1,1.5c0.2,0.6-0.1,1.2-0.7,1.5c-0.9,0.6-2,1-3.2,1.3c-1.3,0.3-2.6,0.4-3.8,0.3c-1-0.1-2.1-0.3-3.2-0.8
			c-1.1-0.4-2-1.1-2.9-2c-0.9-0.9-1.6-2-2.1-3.3c-0.5-1.4-0.7-3-0.6-4.8c0.3-4,2.3-7.2,5.9-9.8c3.7-2.6,8.5-4.7,14.5-6.3
			c2.6-0.8,5.1-1.8,7.5-3.1c2.4-1.3,4.6-2.6,6.5-4.1c1.9-1.4,3.5-2.9,4.8-4.3c1.3-1.4,2.1-2.7,2.5-3.8c0.2-0.5,0.6-0.8,1-0.9
			c0.4-0.2,0.7-0.3,0.8-0.3c0.1,0,0.2,0,0.2,0.1C572.2,82.1,572.3,82.1,572.4,82.2z"/>
		<path class="st0" d="M684.4,114.4c2.3,4.1,4.4,8.4,6.4,12.7c2,4.3,3.5,8.8,4.5,13.4c1,4.6,1.5,9.3,1.3,14.3
			c-0.2,5-1.4,10.1-3.6,15.3c-3.3,7.8-7.5,13.5-12.7,17.1c-5.2,3.6-10.5,5.8-16,6.8c-5.5,1-10.8,1-15.9,0.1
			c-5.1-0.9-9.2-2.1-12.3-3.4c-2.3-1-4.4-2-6.3-3.2c0,2.6,0.7,4.9,2,7c1.3,2,3.6,3.8,6.9,5.4c0.5,0.2,0.8,0.6,0.9,1.2
			c0.2,0.5,0.1,1-0.3,1.4c-0.5,0.6-1.2,1.2-2.2,1.8c-1,0.6-2.2,1.1-3.5,1.4c-1.3,0.3-2.8,0.5-4.3,0.5c-1.5,0-3.1-0.3-4.6-1
			c-1.5-0.6-3.1-1.6-4.8-2.8c-1.6-1.3-2.9-3-3.9-5.2c-1-2.2-1.4-5.1-1.3-8.5c0.1-3.4,1.2-7.6,3.3-12.7c-2.5-4-4.2-8.3-5-12.8
			c-0.8-4.5-0.7-8.9,0.1-13.1c0.9-4.2,2.4-8.2,4.6-11.8c2.2-3.6,4.9-6.5,8.2-8.7c3.3-2.2,7.1-3.5,11.5-4c4.3-0.5,9,0.3,13.9,2.4
			c1,0.4,1.7,0.8,2.1,1.1c2.1-2,4.2-3.8,6.3-5.6c2.2-1.8,4.3-3.5,6.4-5.3c-2.1-3.9-4.2-7.8-6.3-11.5c-2.1-3.7-3.9-7.5-5.2-11.3
			c-1.4-3.8-2.2-7.7-2.4-11.6c-0.2-3.9,0.5-8,2.3-12.2c2-4.8,4.5-8.7,7.3-11.6c2.9-2.9,6-4.9,9.5-6c3.5-1.1,7.2-1.4,11.1-1
			c3.9,0.4,7.9,1.5,11.9,3.2c6.7,2.8,11.3,6.4,13.8,10.9c2.6,4.5,3.6,8.8,3.3,12.9c1-1.4,1.9-2.7,2.7-4c0.8-1.3,1.4-2.6,1.8-4
			c0.4-0.9,0.4-1.7,0.2-2.4c-0.3-0.7-0.7-1.3-1.3-1.8c-0.5-0.5-0.6-1.1-0.5-1.6c0-0.6,0.2-1,0.7-1.2c1.2-0.7,2.4-1.2,3.6-1.4
			c1.2-0.2,2.8,0.1,4.7,0.9c1.9,0.8,3.5,2.4,4.7,4.9c1.2,2.4,1.2,4.9,0.1,7.4c-1.2,2.7-3.2,5.4-6.1,8.2c-2.8,2.8-6.2,5.7-10.1,8.8
			c-3.9,3.1-8.2,6.3-12.9,9.7C694.3,107,689.4,110.6,684.4,114.4z M623,165.7c2.8-5,5.8-9.6,9.3-14c3.4-4.4,7-8.6,10.9-12.6
			c-3.2-0.9-6.1-0.6-8.8,0.7c-2.7,1.3-5,3.3-6.9,6c-1.9,2.7-3.3,5.8-4.2,9.3C622.4,158.6,622.3,162.1,623,165.7z M637.7,182.7
			c3.8,1.6,7.4,2.2,10.8,1.8c3.4-0.4,6.6-1.5,9.5-3.4c2.9-1.9,5.5-4.4,7.8-7.5c2.3-3.1,4.3-6.6,5.9-10.5c3-7.1,4.1-13.8,3.3-19.8
			c-0.8-6.1-2.4-11.9-4.9-17.4c-1.6,1.5-3.3,3-4.8,4.4c-1.6,1.5-3.2,3-4.7,4.5c2.3,3,3.6,6.2,3.9,9.6c0.3,3.4-0.1,6.4-1.2,9.1
			c-1.2,2.7-2.9,4.7-5.3,6c-2.4,1.3-5,1.3-8,0.1c-0.4-0.2-0.7-0.3-1-0.6c-0.7-0.6-1-1.3-1-2c0.1-0.4,0.2-0.7,0.4-0.9
			c0.3-0.3,0.6-0.5,0.9-0.5c0.9,0,1.6-0.3,2.3-0.9c0.6-0.7,1.1-1.5,1.3-2.6c0.3-1.1,0.3-2.3,0.1-3.6c-0.2-1.3-0.7-2.6-1.5-3.9
			c-3.7,4.2-7,8.7-10,13.3c-2.9,4.6-5.5,9.5-7.7,14.7c-0.4,1.1-0.9,2.1-1.3,3.2c-0.4,1.1-0.7,2.1-1.1,3.1
			C633.2,180.5,635.3,181.7,637.7,182.7z M672.4,73.6c-1,2.5-1.5,5.1-1.4,7.7c0.1,2.6,0.6,5.4,1.4,8.2c0.9,2.8,2,5.7,3.5,8.6
			c1.4,2.9,3,5.9,4.7,9c3.1-2.3,6.2-4.7,9.1-7c3-2.3,5.8-4.6,8.4-6.8c-1.7,0-3.5-0.4-5.3-1.2c-1.9-0.8-3.6-1.9-4.9-3.2
			c-1.3-1.3-1.8-3.2-1.4-5.7c0-0.7,0.4-1.1,1.1-1.4c0.4-0.2,0.8-0.2,1.2,0c0.3,0.1,0.5,0.3,0.5,0.4c0.4,0.4,1.1,0.8,2.1,1.2l1.2,0.5
			c1.7,0.7,3.3,0.3,4.8-1.2c1.4-1.6,2.4-3.6,2.8-6c0.4-2.4,0-5-1.1-7.6c-1.1-2.6-3.4-4.7-6.9-6.1c-2-0.8-4.1-1.1-6.1-0.9
			c-2,0.3-3.9,1-5.6,2.1c-1.7,1.1-3.3,2.5-4.6,4.2C674.2,70,673.1,71.8,672.4,73.6z"/>
		<path class="st0" d="M788.4,167.4c-0.5,1.6-1.2,3.9-2.2,7c-1,3.1-1.8,5.7-2.6,7.8c-0.4,1.1-0.9,1.7-1.6,1.8
			c-0.6,0.1-1.2-0.1-1.8-0.5c-0.5-0.4-0.9-0.8-1.3-1.4c-0.4-0.6-0.6-1-0.6-1.3c-0.1-0.9-0.1-2.1,0.1-3.6c0.2-1.5,0.2-3.2-0.1-5.2
			c-0.3-1.9-1-4-2.3-6.2c-1.2-2.2-3.4-4.3-6.4-6.5l-2-1.5l-35.4,49.8c-1.7,2.4-2.5,4.3-2.4,5.6c0.1,1.3,0.3,2.4,0.6,3.2
			c0.4,0.7,0.4,1.2,0,1.5c-0.4,0.3-0.8,0.3-1.1,0.1l-20.6-14.7c-0.3-0.2-0.3-0.5-0.2-1c0.1-0.5,0.5-0.7,1.3-0.5
			c0.8,0.1,1.9-0.1,3.2-0.4c1.3-0.4,2.8-1.7,4.5-4.1l35.4-49.8L751,146c-3.1-2.2-5.9-3.5-8.3-4c-2.5-0.5-4.7-0.5-6.6-0.2
			c-1.9,0.4-3.6,0.9-4.9,1.6c-1.3,0.7-2.5,1.1-3.3,1.3c-0.3,0-0.8,0-1.4-0.2c-0.7-0.2-1.3-0.4-1.8-0.8c-0.6-0.4-0.9-0.9-1-1.5
			c-0.1-0.6,0.3-1.3,1.2-2c0.9-0.8,2-1.6,3.1-2.4c1.1-0.9,2.3-1.7,3.4-2.6c1.1-0.9,2.2-1.7,3.3-2.5c1.1-0.8,1.9-1.4,2.5-1.9
			c1.3-1,2.4-1.6,3.2-2c0.8-0.4,1.6-0.2,2.4,0.4l45.6,32.4c0.8,0.5,1.1,1.2,1,2.1C789.1,164.6,788.8,165.8,788.4,167.4z"/>
		<path class="st0" d="M805.6,267.5c0.7,0.8,1,1.6,0.8,2.6c-0.2,1-0.9,1.6-2.2,1.9l-10.6,2.7c-2.1,0.7-3.9,0.2-5.5-1.5l-35.5-37.8
			c-0.2-0.2-0.2-0.6,0-1.1c0.2-0.5,0.7-0.6,1.5-0.3c0.8,0.2,1.9,0.3,3.2,0.2c1.3-0.1,3.1-1.2,5.2-3.2l45.6-42.8
			c1.2-1.1,1.8-2.3,1.7-3.4c-0.1-1.1-0.2-2.1-0.2-2.9c0-0.8,0.1-1.3,0.5-1.5c0.4-0.2,0.7-0.1,0.9,0.1l34.2,36.4
			c1.6,1.7,2,3.5,1.4,5.6l-4,11.3c-0.5,1.2-1.2,1.8-2.1,2c-0.9,0.2-1.8-0.1-2.5-0.9l-3.7-3.9c-1-1.1-1.5-2.1-1.4-3.2
			c0.1-1.1,0.2-3.1,0.2-6c0.1-1.7-0.2-3.3-1-4.8c-0.8-1.5-1.8-2.9-3-4.2l-9.7-10.3l-19.9,18.7c1.6-0.5,3.2-0.6,5-0.4
			c1.5,0.2,3.1,0.7,4.9,1.4c1.8,0.8,3.6,2.1,5.4,4c2.7,2.8,4,5.6,4,8.4c0,2.8-0.7,5.2-2.2,7.2c-1.5,2-3.6,3.4-6.1,4.4
			c-2.6,0.9-5.2,0.9-7.7,0c-0.1-0.1-0.1-0.1-0.2-0.1c-0.1,0-0.2-0.1-0.3-0.2c-0.1-0.2-0.2-0.4-0.2-0.7c-0.1-0.4,0.1-0.7,0.5-1.1
			c2.7-1.4,4.1-3.1,4.3-5.2c0.1-2.1-0.5-3.9-1.9-5.4c-0.9-1-2.1-1.8-3.6-2.4c-1.5-0.6-3.2-0.9-5.1-0.8c-1.9,0.1-3.9,0.5-6,1.4
			c-2.1,0.9-4.2,2.3-6.4,4.4l-0.2,0.2c-1.1,1.1-2.3,2.2-3.5,3.5c-1.2,1.3-2.2,2.6-2.9,4c-0.7,1.4-1.1,2.9-1,4.4
			c0.1,1.5,0.9,3,2.3,4.5l4.9,5.3c2.6,2.7,5.7,4.1,9.4,4.1c3,0.1,5,0.1,6,0.1c1,0,2.1,0.5,3.1,1.5L805.6,267.5z"/>
		<path class="st0" d="M845.6,327.1c0.6,0.9,0.7,1.8,0.3,2.7c-0.4,0.9-1.2,1.4-2.5,1.5l-11,0.6c-2.2,0.3-3.9-0.6-5.1-2.5l-27.8-43.8
			c-0.2-0.3-0.1-0.6,0.2-1.1c0.3-0.5,0.8-0.5,1.5,0c0.7,0.4,1.8,0.7,3.1,0.8c1.3,0.1,3.2-0.6,5.7-2.1l52.8-33.5
			c1.4-0.9,2.2-1.9,2.3-3c0.1-1.1,0.2-2.1,0.3-2.9c0.1-0.8,0.4-1.3,0.8-1.4c0.4-0.1,0.7,0,0.9,0.3l26.8,42.2
			c1.2,1.9,1.3,3.9,0.3,5.8l-6.1,10.4c-0.7,1.1-1.5,1.6-2.5,1.6c-0.9,0-1.7-0.5-2.3-1.4l-2.9-4.5c-0.8-1.2-1-2.4-0.8-3.4
			c0.3-1,0.7-3,1.4-5.9c0.4-1.6,0.4-3.3,0-4.9c-0.5-1.6-1.2-3.2-2.1-4.7l-7.6-11.9l-23.1,14.6c1.6-0.2,3.3,0,5,0.5
			c1.4,0.5,2.9,1.2,4.5,2.3c1.6,1.1,3.1,2.7,4.5,4.9c2.1,3.3,2.9,6.3,2.4,9c-0.5,2.7-1.7,4.9-3.5,6.6c-1.9,1.7-4.1,2.7-6.8,3.1
			c-2.7,0.4-5.2-0.1-7.6-1.4c-0.1-0.1-0.1-0.1-0.2-0.2c-0.1,0-0.2-0.1-0.3-0.3c-0.1-0.2-0.1-0.4-0.1-0.7c0-0.4,0.2-0.7,0.7-1
			c2.9-0.9,4.6-2.3,5.2-4.3c0.5-2,0.2-3.9-0.9-5.7c-0.7-1.2-1.8-2.2-3.1-3c-1.4-0.9-3-1.5-4.8-1.8c-1.9-0.3-3.9-0.2-6.2,0.3
			c-2.2,0.5-4.6,1.5-7.1,3.1l-0.3,0.2c-1.3,0.8-2.7,1.8-4.1,2.8c-1.4,1-2.6,2.1-3.6,3.4c-1,1.3-1.6,2.6-1.8,4.1
			c-0.2,1.5,0.3,3.1,1.4,4.9l3.9,6.1c2,3.2,4.9,5.1,8.5,5.8c2.9,0.6,4.8,1,5.9,1.2c1,0.2,1.9,0.8,2.7,2.1L845.6,327.1z"/>
		<path class="st0" d="M882.7,374.2c1.1,2.8,1.3,5.4,0.6,7.7c-0.8,2.3-2.1,4.4-3.9,6.1c-1.9,1.7-4.1,3-6.7,3.9
			c-2.6,0.9-5.2,1.3-7.8,1.3c-2.6,0-4.9-0.6-7-1.7c-2.1-1.1-3.6-2.8-4.6-5.1l-17-42.3c-0.1-0.3,0-0.6,0.4-1c0.4-0.4,0.9-0.3,1.5,0.3
			c0.7,0.5,1.6,1,2.9,1.4c1.3,0.4,3.3,0,6-1.1l58-23.3c1.6-0.6,2.5-1.5,2.8-2.6c0.3-1.1,0.6-2,0.8-2.8c0.3-0.8,0.6-1.2,1-1.2
			c0.4,0,0.7,0.1,0.8,0.4l9.5,23.6c0.1,0.3,0,0.6-0.3,0.8c-0.4,0.3-0.9,0.2-1.5-0.1c-0.7-0.4-1.6-0.9-2.5-1.4
			c-1-0.6-2.2-0.5-3.8,0.1l-60.9,24.5l3.8,9.5c1.2,3.1,2.6,5.3,4.1,6.6c1.5,1.3,2.9,2.2,4.2,2.6c1.5,0.4,3,0.4,4.5-0.1
			c1.6-0.6,2.5-1.2,2.9-1.7c0.3-0.5,0.4-1,0.2-1.5c-0.2-0.4-0.4-0.7-0.6-0.9c-0.2-0.2-0.5-0.4-0.6-0.5c-0.5-0.5-0.9-1-1.2-1.7
			c-0.5-1.2-0.5-2.4,0-3.6c0.5-1.2,1.5-2.1,3.1-2.6c1.8-0.5,3.8-0.4,6.1,0.4C879.6,368.9,881.3,370.9,882.7,374.2z"/>
	</g>
	<g>
		<path class="st0" d="M200.9,762.5c2,2.6,3,5.3,3,8.2c0,2.9-0.8,5.7-2.3,8.2c-1.5,2.6-3.6,4.8-6.1,6.7c-2.6,1.9-5.4,3.1-8.4,3.7
			c-3,0.6-6.1,0.4-9.3-0.6c-3.2-1.1-6.1-3.2-8.7-6.6l-18.6-23.7c-0.1-0.2-0.1-0.5,0.2-0.9c0.3-0.4,0.7-0.5,1.2-0.2
			c0.6,0.2,1.5,0.3,2.6,0.2c1.1-0.1,2.6-0.9,4.6-2.4l42-33.1c1.1-0.9,1.7-1.8,1.7-2.7c0-0.9,0.1-1.7,0.1-2.3c0.1-1.1,0.5-1.5,1-1.1
			c0.5,0.4,1,0.8,1.4,1.3l0.7,0.9l15.5,19.6c2.4,3.1,3.8,6,4.1,8.8c0.3,2.8,0,5.4-1,7.7c-1,2.3-2.5,4.3-4.5,6c-2,1.7-4.1,3-6.4,3.8
			c-2.3,0.8-4.6,1.1-6.9,0.9C204.4,764.9,202.5,764,200.9,762.5z M170.7,774.5c1.3,1.6,2.9,2.6,4.7,3c1.9,0.3,3.8,0.2,5.8-0.4
			c2-0.6,3.9-1.6,5.6-2.9c1.8-1.4,3.2-2.9,4.4-4.6c1.1-1.7,1.8-3.5,2-5.3c0.2-1.9-0.2-3.6-1.5-5.3l-5.8-7.3l-20.6,16.2L170.7,774.5z
			 M208.5,733.9L193.1,746l4.2,5.4c1.4,1.8,3.3,2.6,5.7,2.3c2.3-0.3,4.5-1.1,6.4-2.6c1.9-1.5,3.4-3.3,4.3-5.4c1-2.1,0.7-4.1-0.6-6
			L208.5,733.9z"/>
		<path class="st0" d="M248.9,858.2c0.1,0.6,0,1-0.3,1.2c-0.3,0.2-0.6,0.2-0.8,0.1L232,845.9c-0.2-0.2-0.2-0.4,0-0.9
			c0.2-0.4,0.5-0.5,1-0.4c1,0.2,1.9,0,2.8-0.5c0.9-0.5,1.6-1.3,2.4-2.2c0.7-1,1.4-2,1.9-3.1c0.6-1.1,1.1-2.1,1.6-3.1l-9.9-17.4
			l-10.3,6.4c-1.1,0.8-1.9,1.6-2.4,2.4c-0.5,0.8-0.9,1.5-1,2.1c-0.2,0.6-0.2,1.2-0.2,1.7c0,0.5,0.1,0.8,0.2,1c0.1,0.5,0,0.8-0.3,1.1
			c-0.3,0.3-0.6,0.3-0.8,0.2L205.1,823c-0.2-0.2-0.3-0.5-0.1-0.8c0.2-0.3,0.6-0.5,1.2-0.4c0.3,0,0.7,0.1,1.3,0.2
			c0.5,0.1,1.2,0.1,2.1,0.1c0.8-0.1,1.9-0.3,3.1-0.7c1.2-0.4,2.6-1.1,4.3-2.2l46.2-29.3c1-0.8,1.5-1.5,1.4-2.2
			c-0.1-0.7-0.1-1.3-0.1-1.9c-0.1-0.7,0.1-1.1,0.4-1.3c0.3-0.2,0.6-0.2,0.8-0.1l14.4,12.2c0.2,0.2,0.3,0.5,0.1,0.8
			c-0.2,0.3-0.6,0.5-1.2,0.5c-0.9,0.1-1.6,0.2-2.1,0.4c-0.5,0.2-1.1,1-1.7,2.3L250.6,848c-0.8,1.8-1.3,3.3-1.6,4.5
			c-0.3,1.2-0.4,2.1-0.4,2.9c0,0.8,0,1.3,0.1,1.8C248.8,857.5,248.9,857.9,248.9,858.2z M239.2,813.6l7.3,13l13.3-26L239.2,813.6z"
			/>
		<path class="st0" d="M325,884.9c0.6,1.4,0.6,3.2,0.1,5.2c-0.5,2-1.5,3.8-3,5.3c-1.5,1.5-3.3,2.6-5.6,3.1c-2.3,0.5-4.9,0-7.9-1.7
			c-2.2-1.2-3.7-2.7-4.5-4.3c-0.8-1.7-1.1-3.4-1-5.3c0.1-1.9,0.4-3.8,1-5.8c0.6-2,1.2-4,1.8-6c0.6-2,1-3.9,1.2-5.8
			c0.2-1.9,0-3.6-0.7-5.2l-2.4-1.3l-9.1,16.3c-1.2,2.2-1.8,3.8-1.6,4.9c0.1,1.1,0.3,1.9,0.7,2.5c0.4,0.5,0.4,0.9,0,1.2
			c-0.3,0.3-0.6,0.4-0.8,0.2l-16.9-9.4c-0.2-0.1-0.3-0.4-0.2-0.8c0.1-0.4,0.4-0.6,1-0.6c0.7,0,1.5-0.3,2.5-0.8c1-0.5,2.1-1.8,3.3-4
			l25.9-46.8c0.7-1.3,0.9-2.3,0.6-3.1c-0.3-0.8-0.6-1.6-0.8-2.2c-0.2-0.6-0.2-1.1,0.1-1.3c0.3-0.3,0.5-0.3,0.7-0.2l22.9,12.7
			c3.6,2,6.2,4.4,7.6,7.3c1.5,2.9,2.1,5.8,2,8.9c-0.1,3.1-0.9,6-2.4,8.9c-1.5,2.9-3.5,5.4-5.9,7.5c-2.4,2.1-5.1,3.6-8.2,4.6
			c-3.1,1-6.2,1-9.5,0.1c-0.1,0.7-0.2,1.4-0.3,2.1c-0.1,0.7-0.2,1.5-0.4,2.3c-0.7,3.4-0.7,6,0,7.7s1.6,3,2.8,3.6
			c0.8,0.5,1.7,0.6,2.6,0.5c0.9-0.1,1.7-0.4,2.2-0.9c0.5-0.4,1-0.5,1.5-0.2C324.6,884.4,324.8,884.6,325,884.9z M311.7,858.7
			c2.1,1.2,4.2,1.6,6.3,1.3c2.1-0.3,4-1.1,5.7-2.3c1.7-1.2,3.1-2.8,4.3-4.7c1.2-1.9,2-3.9,2.2-5.9c0.3-2,0-4-0.8-5.9
			c-0.8-1.9-2.4-3.5-4.6-4.8l-4.5-2.5l-12.6,22.7L311.7,858.7z"/>
		<path class="st0" d="M394.7,892.1c3.1,1,5.5,2.7,7,5.2c1.6,2.4,2.5,5.2,2.6,8.1c0.2,3-0.3,6-1.4,8.9c-1.1,3-2.7,5.6-4.9,7.8
			c-2.2,2.2-4.9,3.8-8.1,4.6c-3.2,0.9-6.8,0.7-10.9-0.6l-28.7-9.3c-0.2-0.1-0.3-0.3-0.4-0.8c0-0.5,0.3-0.8,0.9-0.8
			c0.6-0.2,1.4-0.6,2.3-1.2c0.9-0.7,1.7-2.2,2.5-4.6l16.5-50.8c0.4-1.4,0.4-2.4,0-3.2c-0.5-0.8-0.9-1.4-1.2-2
			c-0.5-1-0.5-1.5,0.2-1.5c0.6,0,1.2,0.1,1.8,0.3l1.1,0.4l23.8,7.7c3.7,1.2,6.5,2.9,8.4,5c1.9,2.2,3,4.5,3.4,7
			c0.4,2.5,0.3,5-0.4,7.5c-0.7,2.5-1.8,4.7-3.3,6.7c-1.5,2-3.2,3.5-5.3,4.6C398.9,892.2,396.8,892.5,394.7,892.1z M376.2,918.8
			c2,0.6,3.8,0.6,5.6-0.2c1.8-0.7,3.3-1.9,4.6-3.5c1.3-1.6,2.3-3.5,3.1-5.6c0.7-2.1,1.1-4.2,1.1-6.2c0-2-0.4-3.9-1.3-5.6
			c-0.8-1.7-2.2-2.9-4.2-3.6l-8.9-2.9l-8.1,24.9L376.2,918.8z M385.1,864.1l-6.1,18.7l6.5,2.1c2.2,0.7,4.2,0.3,6-1.2
			c1.8-1.5,3.1-3.4,3.9-5.7c0.8-2.3,1-4.6,0.6-6.9c-0.4-2.3-1.7-3.8-3.8-4.6L385.1,864.1z"/>
		<path class="st0" d="M477.8,931.3c0.8,0.1,1.4,0.5,1.7,1.2c0.4,0.7,0.2,1.5-0.4,2.5l-5,7.6c-0.9,1.6-2.3,2.3-4,2.1l-39.2-4.9
			c-0.2,0-0.4-0.3-0.5-0.7c-0.1-0.5,0.1-0.8,0.7-1c0.6-0.3,1.3-0.8,2-1.6c0.7-0.8,1.3-2.5,1.6-4.9l6.6-53.1c0.2-1.4,0-2.5-0.6-3.1
			c-0.6-0.7-1.1-1.2-1.5-1.7c-0.4-0.5-0.5-0.9-0.4-1.3c0.2-0.3,0.4-0.5,0.6-0.5l37.7,4.7c1.7,0.2,2.9,1.2,3.5,2.9l3,9.6
			c0.3,1,0.2,1.8-0.3,2.5c-0.5,0.6-1.1,0.9-1.9,0.8l-4-0.5c-1.1-0.1-1.9-0.6-2.4-1.3c-0.5-0.7-1.4-2.1-2.7-4.1
			c-0.7-1.2-1.7-2-2.9-2.6c-1.2-0.6-2.4-0.9-3.8-1.1l-10.7-1.3l-2.9,23.2c0.7-1.2,1.6-2.2,2.8-3c1-0.7,2.2-1.3,3.6-1.8
			c1.4-0.5,3.1-0.6,5.1-0.4c2.9,0.4,5.1,1.4,6.4,3.2c1.3,1.8,2,3.8,2.1,5.9c0.1,2.1-0.5,4.2-1.6,6.2c-1.1,2-2.6,3.5-4.6,4.3
			c-0.1,0-0.1,0-0.2,0c0,0-0.1,0-0.3,0c-0.2,0-0.3-0.1-0.4-0.3c-0.2-0.2-0.3-0.5-0.2-1c0.9-2.4,1-4.3,0.1-5.7
			c-0.9-1.4-2.2-2.2-3.7-2.4c-1-0.1-2.1,0-3.3,0.5c-1.2,0.4-2.3,1.2-3.4,2.3c-1.1,1.1-2.1,2.5-2.9,4.2c-0.8,1.7-1.4,3.9-1.7,6.4
			l0,0.3c-0.2,1.3-0.3,2.7-0.4,4.2c-0.1,1.5,0,2.9,0.2,4.2c0.2,1.3,0.7,2.5,1.5,3.4c0.8,0.9,1.9,1.5,3.5,1.7l5.5,0.7
			c2.8,0.4,5.4-0.5,7.6-2.6c1.8-1.6,3-2.7,3.6-3.3c0.6-0.6,1.4-0.8,2.6-0.7L477.8,931.3z"/>
		<path class="st0" d="M556.7,925.9c1.3,0.9,2.2,2.4,2.8,4.3c0.6,2,0.8,4,0.4,6.1c-0.4,2.1-1.4,4-3.1,5.6c-1.7,1.7-4.2,2.6-7.6,2.8
			c-2.5,0.2-4.6-0.3-6.1-1.2c-1.5-1-2.8-2.3-3.7-3.9c-0.9-1.6-1.7-3.4-2.2-5.4c-0.6-2-1.1-4-1.7-6c-0.6-2-1.3-3.8-2.1-5.5
			c-0.8-1.7-1.9-3-3.4-4l-2.7,0.2l1.1,18.6c0.2,2.5,0.6,4.2,1.3,5c0.7,0.9,1.3,1.4,1.9,1.8c0.6,0.2,0.8,0.6,0.7,1
			c-0.1,0.4-0.3,0.6-0.6,0.6l-19.3,1.2c-0.2,0-0.5-0.2-0.6-0.6s0-0.7,0.5-1c0.5-0.4,1.1-1.1,1.7-2c0.6-0.9,0.8-2.7,0.6-5.2
			l-3.3-53.4c-0.1-1.4-0.5-2.4-1.2-3c-0.7-0.5-1.3-1-1.8-1.4c-0.5-0.4-0.7-0.8-0.6-1.2c0.1-0.4,0.3-0.6,0.5-0.6l26.1-1.6
			c4.1-0.3,7.6,0.4,10.4,2.1c2.8,1.6,4.9,3.8,6.5,6.4c1.6,2.6,2.5,5.6,2.8,8.8c0.3,3.3,0,6.4-0.9,9.5c-0.9,3.1-2.4,5.8-4.5,8.3
			c-2.1,2.5-4.7,4.2-7.9,5.2c0.3,0.6,0.6,1.2,0.9,1.9c0.3,0.7,0.6,1.4,0.9,2.2c1.2,3.2,2.6,5.4,4.1,6.5c1.5,1.1,2.9,1.6,4.3,1.6
			c1-0.1,1.8-0.4,2.5-1c0.7-0.6,1.2-1.2,1.4-2c0.2-0.6,0.6-1,1.1-1C556.1,925.6,556.4,925.7,556.7,925.9z M531.4,910.9
			c2.4-0.1,4.4-0.9,6-2.3c1.6-1.4,2.8-3.1,3.5-5c0.8-1.9,1.1-4,1.1-6.3c0-2.3-0.4-4.3-1.3-6.2c-0.8-1.8-2.1-3.3-3.9-4.5
			c-1.7-1.2-3.9-1.7-6.4-1.6l-5.1,0.3l1.6,25.9L531.4,910.9z"/>
		<path class="st0" d="M631.1,871.9c0.8,2.3,2.3,4,4.4,5.1c2.1,1.1,4.6,1.9,7.4,2.4c2.8,0.5,5.7,1,8.8,1.5c3.1,0.4,6.1,1.2,8.9,2.4
			c2.8,1.1,5.3,2.8,7.5,4.9c2.2,2.1,3.8,5.1,4.7,9.1c0.9,3.7,1.1,6.9,0.6,9.6c-0.5,2.7-1.5,5.1-3,7.1c-1.5,2-3.3,3.8-5.6,5.1
			c-2.3,1.4-4.8,2.6-7.5,3.6c-4.5,1.6-8.5,2.2-11.9,1.9c-3.4-0.4-6.3-1.4-8.6-2.9c-2.3-1.6-4-3.5-5.2-5.9c-1.2-2.4-1.8-4.7-1.9-7.1
			c0-2.4,0.5-4.6,1.6-6.6c1.1-2,2.8-3.4,5.1-4.3c2.6-0.9,4.7-1.1,6.4-0.5c1.6,0.6,2.8,1.5,3.5,2.8c0.7,1.2,1,2.5,0.8,3.8
			c-0.2,1.3-0.7,2.2-1.7,2.8c-0.3,0.1-0.6,0.1-0.8-0.1c-1-0.7-1.8-0.9-2.5-0.7c-0.9,0.3-1.4,1.2-1.6,2.7c-0.2,1.5,0.1,2.9,1,4.3
			c0.8,1.4,2.2,2.4,4.2,3.1c2,0.7,4.6,0.5,7.9-0.7c1.5-0.5,2.7-1.3,3.6-2.2c0.9-0.9,1.5-2,1.9-3.1c0.4-1.1,0.5-2.3,0.5-3.5
			c0-1.2-0.2-2.3-0.6-3.3c-1.1-3-2.7-5.3-4.8-6.9c-2.1-1.6-4.4-2.8-6.9-3.6c-2.5-0.8-5.2-1.4-8-1.8c-2.8-0.4-5.5-1-8-1.7
			c-2.5-0.7-4.8-1.8-6.8-3.2c-2-1.4-3.5-3.5-4.5-6.3c-1.2-3.4-1.6-6.4-1.1-8.9c0.5-2.6,1.5-4.9,3-6.8c1.5-1.9,3.4-3.6,5.7-4.9
			c2.3-1.3,4.6-2.5,7.1-3.3c3.6-1.3,6.8-2,9.5-2.2c2.7-0.2,5,0,6.9,0.7c1.9,0.6,3.4,1.5,4.5,2.7c1.2,1.2,2,2.6,2.5,4.1
			c1,2.5,1.1,5,0.5,7.5c-0.7,2.5-2,4.1-4,4.9c-0.5,0.2-1.1,0.3-2,0.4c-0.9,0.1-1.5-0.2-1.8-0.7c-0.3-0.5-0.3-0.9-0.1-1.4
			c0.6-1.8,0.7-3.5,0.4-5c-0.4-1.5-1.1-2.7-2.3-3.5c-1.2-0.9-2.7-1.4-4.5-1.5c-1.8-0.1-3.9,0.2-6.3,1.1c-1.8,0.6-3.2,1.4-4.1,2.3
			c-1,0.9-1.6,1.7-2.1,2.6c-0.4,0.9-0.6,1.7-0.6,2.5C630.9,870.7,631,871.4,631.1,871.9z"/>
		<path class="st0" d="M709.4,898.1c0.3-0.5,0.6-1.3,0.7-2.4c0.1-1.1-0.5-2.7-1.8-4.9l-27.2-46c-0.8-1.3-1.6-2-2.5-2.2
			c-0.9-0.2-1.6-0.3-2.3-0.4c-0.6-0.1-1-0.4-1.1-0.8c-0.1-0.4,0-0.6,0.2-0.7l16.6-9.8c0.3-0.2,0.5-0.1,0.8,0.2
			c0.2,0.3,0.3,0.7,0.1,1.3c-0.1,0.6-0.3,1.3-0.7,2.2c-0.3,0.9-0.1,2,0.7,3.3l12.6,21.3l17.2-3.3l-15.6-26.4c-0.8-1.3-1.6-2-2.5-2.2
			c-0.9-0.1-1.7-0.3-2.2-0.5c-0.6-0.1-1-0.4-1.1-0.7c-0.1-0.3,0-0.6,0.2-0.8l16.6-9.8c0.2-0.1,0.5-0.1,0.7,0.2
			c0.3,0.2,0.3,0.7,0.2,1.3c-0.2,0.6-0.4,1.4-0.7,2.2c-0.3,0.8,0,1.9,0.7,3.2l27.2,46c1.3,2.2,2.4,3.5,3.4,3.9
			c1,0.4,1.8,0.6,2.4,0.6c0.7,0,1,0.3,1.1,0.7c0.1,0.4,0,0.7-0.2,0.8l-16.6,9.8c-0.3,0.2-0.6,0.1-0.9-0.2c-0.3-0.3-0.3-0.7,0-1.3
			c0.3-0.5,0.6-1.3,0.7-2.4c0.1-1.1-0.5-2.7-1.8-4.9l-6.9-11.7l-17.3,3.2l10,16.9c1.3,2.2,2.4,3.5,3.4,3.9c1,0.4,1.8,0.6,2.4,0.6
			c0.7,0,1,0.2,1.1,0.6c0.1,0.4,0,0.7-0.3,0.9l-16.6,9.8c-0.2,0.1-0.5,0.1-0.8-0.2C709.1,899.1,709.1,898.7,709.4,898.1z"/>
		<path class="st0" d="M754.5,786.6c2.4-2.2,5.3-3.5,8.7-4.1c3.3-0.6,6.8-0.4,10.5,0.5c3.7,0.9,7.3,2.5,11,4.7
			c3.7,2.3,7.1,5.2,10.2,8.7c3.1,3.6,5.6,7.3,7.5,11.2c1.8,3.9,3,7.8,3.4,11.5c0.4,3.7,0.2,7.2-0.8,10.5c-1,3.2-2.7,5.9-5.1,8.1
			c-2.4,2.2-5.3,3.5-8.7,4.1c-3.3,0.6-6.8,0.4-10.5-0.5c-3.7-0.9-7.3-2.5-11-4.8c-3.7-2.3-7.1-5.2-10.2-8.8
			c-3.1-3.6-5.6-7.3-7.4-11.2c-1.8-3.9-2.9-7.7-3.4-11.5s-0.2-7.2,0.8-10.5C750.3,791.5,752,788.8,754.5,786.6z M795,832.4
			c1-0.9,1.5-2.3,1.5-4.2c0-1.9-0.5-4-1.5-6.4c-0.9-2.4-2.3-5-4.1-7.8c-1.8-2.8-3.9-5.6-6.4-8.4c-2.4-2.8-4.9-5.2-7.5-7.3
			c-2.6-2.1-5-3.8-7.2-5c-2.3-1.2-4.3-2-6.2-2.2c-1.9-0.3-3.3,0.1-4.3,1c-1,0.9-1.5,2.3-1.4,4.1c0.1,1.9,0.5,4,1.5,6.4
			c0.9,2.4,2.3,5,4,7.8c1.8,2.8,3.9,5.6,6.3,8.3c2.5,2.8,5,5.3,7.6,7.4c2.6,2.1,5,3.8,7.3,5c2.3,1.2,4.4,1.9,6.2,2.2
			C792.5,833.6,793.9,833.3,795,832.4z"/>
		<path class="st0" d="M803.3,735c2.8-3.5,5.8-5.7,9.1-6.7c3.3-0.9,6.6-1,9.7-0.1c3.2,0.9,6.1,2.5,8.8,4.9c2.7,2.4,4.8,5.1,6.2,8.2
			c1.4,3.1,2.1,6.4,1.9,9.9c-0.2,3.5-1.5,6.8-4,10l-5.3,6.8l14.7,11.6c2,1.6,3.5,2.4,4.6,2.4c1.1,0.1,2,0,2.6-0.2
			c0.6-0.3,0.9-0.2,1.2,0.2c0.2,0.4,0.3,0.7,0.1,0.8l-12,15.2c-0.1,0.2-0.4,0.2-0.8,0.1c-0.4-0.1-0.6-0.5-0.4-1.1
			c0.1-0.7-0.1-1.5-0.4-2.6c-0.3-1.1-1.5-2.4-3.4-3.9l-42-33.1c-1.1-0.9-2.1-1.2-3-1.1c-0.9,0.2-1.6,0.3-2.3,0.4
			c-0.6,0.1-1.1,0-1.3-0.3c-0.2-0.3-0.2-0.6-0.1-0.8L803.3,735z M826.4,759.6c1.5-1.9,2.2-3.9,2.2-6c0-2.1-0.4-4.1-1.4-6
			c-0.9-1.9-2.3-3.5-4-5c-1.7-1.5-3.5-2.6-5.5-3.2c-1.9-0.6-3.9-0.6-6-0.1c-2.1,0.5-3.9,1.8-5.5,3.8l-3.2,4l20.4,16L826.4,759.6z"/>
	</g>
	<g>
		<g>
			<rect x="85.4" y="505.3" class="st1" width="147.3" height="8.7"/>
			<rect x="85.4" y="574.6" class="st1" width="147.3" height="8.7"/>
			<g>
				<path class="st0" d="M128.7,555.1c0.5,0,0.8,0.2,1.1,0.6c0.3,0.4,0.2,0.9,0,1.4l-2.3,4.7c-0.4,1-1.1,1.5-2.1,1.5h-22.6
					c-0.1,0-0.3-0.1-0.3-0.4c-0.1-0.3,0-0.5,0.3-0.6c0.3-0.2,0.7-0.6,1-1.1c0.4-0.5,0.5-1.5,0.5-2.9v-30.6c0-0.8-0.2-1.4-0.6-1.7
					c-0.4-0.3-0.7-0.6-1-0.9s-0.4-0.5-0.3-0.7c0.1-0.2,0.2-0.3,0.3-0.3h21.8c1,0,1.7,0.5,2.2,1.4l2.4,5.2c0.2,0.6,0.2,1,0,1.4
					c-0.2,0.4-0.6,0.6-1,0.6h-2.3c-0.6,0-1.1-0.2-1.4-0.6c-0.3-0.4-0.9-1.1-1.8-2.1c-0.5-0.6-1.1-1-1.8-1.3
					c-0.7-0.2-1.4-0.3-2.2-0.3h-6.2v13.4c0.3-0.7,0.8-1.4,1.4-1.9c0.5-0.5,1.1-0.9,1.9-1.3c0.8-0.4,1.7-0.6,2.9-0.6
					c1.7,0,3,0.5,3.9,1.4c0.9,0.9,1.4,2,1.6,3.2c0.2,1.2,0,2.4-0.4,3.7c-0.5,1.2-1.2,2.2-2.3,2.8c0,0-0.1,0-0.1,0c0,0-0.1,0-0.2,0
					c-0.1,0-0.2,0-0.3-0.2c-0.1-0.1-0.2-0.3-0.2-0.5c0.4-1.4,0.2-2.5-0.4-3.3c-0.6-0.7-1.4-1.1-2.3-1.1c-0.6,0-1.2,0.2-1.8,0.5
					c-0.6,0.3-1.2,0.8-1.8,1.5c-0.5,0.7-1,1.6-1.3,2.6c-0.3,1.1-0.5,2.3-0.5,3.7v0.2c0,0.8,0,1.6,0.1,2.4c0,0.8,0.2,1.6,0.4,2.4
					c0.2,0.7,0.6,1.3,1.1,1.8c0.5,0.5,1.2,0.7,2.1,0.7h3.1c1.6,0,3-0.7,4.1-2c0.9-1,1.5-1.7,1.8-2.1c0.3-0.4,0.8-0.6,1.4-0.6H128.7z
					"/>
				<path class="st0" d="M146.5,531.5c0,1.4,0.5,2.6,1.4,3.6c0.9,1,2.1,1.9,3.5,2.7c1.4,0.8,2.9,1.7,4.5,2.5c1.6,0.8,3,1.8,4.3,3
					c1.3,1.2,2.3,2.5,3.1,4.1c0.8,1.6,1,3.5,0.8,5.8c-0.2,2.2-0.7,3.9-1.5,5.3c-0.8,1.4-1.8,2.4-3,3.3c-1.2,0.8-2.5,1.4-4,1.7
					c-1.5,0.3-3.1,0.5-4.8,0.5c-2.7,0-5-0.4-6.8-1.3c-1.8-0.9-3.1-1.9-4.1-3.2c-0.9-1.3-1.5-2.7-1.7-4.2c-0.2-1.5-0.1-2.9,0.4-4.2
					c0.4-1.3,1.2-2.4,2.2-3.2c1-0.9,2.2-1.3,3.6-1.3c1.6,0,2.8,0.3,3.5,1c0.8,0.6,1.2,1.4,1.3,2.2c0.1,0.8,0,1.5-0.3,2.2
					c-0.3,0.7-0.8,1.1-1.5,1.2c-0.2,0-0.3-0.1-0.4-0.2c-0.4-0.6-0.8-0.8-1.2-0.8c-0.5,0-1,0.4-1.4,1.2c-0.4,0.8-0.5,1.6-0.3,2.5
					c0.2,0.9,0.7,1.7,1.7,2.5c0.9,0.8,2.4,1.2,4.4,1.2c0.9,0,1.7-0.2,2.4-0.5c0.7-0.3,1.2-0.8,1.6-1.3c0.4-0.5,0.7-1.1,0.9-1.8
					c0.2-0.6,0.3-1.3,0.3-1.9c0-1.8-0.4-3.4-1.2-4.7c-0.8-1.3-1.8-2.3-3-3.3c-1.2-0.9-2.5-1.8-4-2.5c-1.4-0.8-2.8-1.6-4-2.5
					c-1.2-0.9-2.2-1.9-3-3s-1.2-2.6-1.2-4.3c0-2.1,0.4-3.7,1.1-5c0.8-1.3,1.7-2.3,2.9-3.1c1.2-0.7,2.5-1.3,4-1.5
					c1.5-0.3,3-0.4,4.5-0.4c2.2,0,4,0.2,5.5,0.7c1.5,0.4,2.7,1,3.6,1.7c0.9,0.7,1.5,1.5,1.9,2.3c0.4,0.9,0.6,1.8,0.6,2.7
					c0,1.5-0.4,2.9-1.2,4.2c-0.8,1.2-1.9,1.8-3.1,1.8c-0.3,0-0.7-0.1-1.1-0.2c-0.5-0.1-0.8-0.4-0.9-0.7c0-0.3,0-0.6,0.2-0.8
					c0.7-0.9,1.1-1.7,1.2-2.6c0.1-0.9-0.1-1.7-0.5-2.3c-0.5-0.7-1.2-1.3-2.1-1.7c-1-0.4-2.2-0.7-3.6-0.7c-1.1,0-2,0.1-2.7,0.4
					c-0.7,0.3-1.2,0.6-1.6,1c-0.4,0.4-0.7,0.8-0.8,1.2C146.6,530.8,146.5,531.2,146.5,531.5z"/>
				<path class="st0" d="M201.9,526.3c0.2,0.8,0.6,1.9,1,3.4c0.4,1.5,0.8,2.8,1.1,3.8c0.1,0.6,0.1,0.9-0.1,1.2
					c-0.2,0.2-0.5,0.3-0.8,0.3c-0.3,0-0.5-0.1-0.8-0.2c-0.3-0.1-0.5-0.2-0.5-0.3c-0.3-0.3-0.6-0.8-0.9-1.5c-0.3-0.7-0.7-1.3-1.3-2
					c-0.6-0.7-1.4-1.3-2.4-1.8c-1-0.5-2.3-0.8-3.9-0.8h-1.1v29.9c0,1.4,0.2,2.4,0.5,2.9c0.4,0.5,0.7,0.9,1,1.1
					c0.3,0.2,0.4,0.3,0.4,0.6c-0.1,0.2-0.2,0.3-0.4,0.3h-11c-0.1,0-0.3-0.1-0.3-0.3c-0.1-0.2,0-0.4,0.3-0.6c0.3-0.2,0.7-0.6,1-1.1
					c0.4-0.5,0.5-1.5,0.5-2.9v-29.9h-1c-1.6,0-3,0.3-4,0.8c-1,0.5-1.8,1.1-2.4,1.8c-0.6,0.7-1,1.4-1.3,2c-0.3,0.7-0.6,1.2-0.9,1.5
					c-0.1,0.1-0.3,0.2-0.5,0.3c-0.3,0.1-0.5,0.2-0.8,0.2c-0.3,0-0.6-0.1-0.8-0.3c-0.2-0.2-0.2-0.6-0.1-1.2c0.1-0.6,0.3-1.2,0.5-1.8
					c0.2-0.7,0.4-1.3,0.5-2c0.2-0.7,0.4-1.3,0.5-1.9c0.2-0.6,0.3-1.1,0.4-1.5c0.2-0.8,0.4-1.3,0.6-1.7c0.2-0.4,0.5-0.5,1-0.5h24.4
					c0.4,0,0.7,0.2,0.9,0.5C201.4,524.9,201.6,525.5,201.9,526.3z"/>
				<path class="st0" d="M215.7,563.3c-0.9,0-1.7-0.4-2.4-1.2c-0.7-0.8-1-1.7-1-2.7c0-1,0.3-1.9,1-2.7c0.7-0.7,1.4-1.1,2.4-1.1
					c0.9,0,1.7,0.4,2.4,1.1c0.7,0.7,1,1.6,1,2.7c0,1-0.3,1.9-1,2.7C217.4,562.9,216.6,563.3,215.7,563.3z"/>
			</g>
		</g>
		<g>
			<rect x="789.6" y="505.3" class="st1" width="147.3" height="8.7"/>
			<rect x="789.6" y="574.6" class="st1" width="147.3" height="8.7"/>
			<g>
				<path class="st0" d="M830.6,550.7c1.3,0,2.3,0.7,2.8,2c0.6,1.3,0.7,2.7,0.4,4.3c-0.3,1.5-1,3-2.2,4.3c-1.2,1.3-2.9,2-5,2
					c-1.3,0-2.4-0.2-3.1-0.5c-0.7-0.4-1.4-0.7-2-1.2c-0.6-0.4-1.2-0.8-2-1.2c-0.7-0.4-1.7-0.5-3.1-0.5c-2.1,0-3.7,0.4-4.9,1.2
					c-1.2,0.8-2.1,1.4-2.6,1.9c-0.2,0.2-0.4,0.3-0.8,0.3c-0.5,0-0.9-0.2-1.3-0.7c-0.4-0.5-0.7-1-1-1.7c-0.3-0.6-0.5-1.3-0.6-2
					c-0.1-0.7-0.2-1.2-0.2-1.7c0-2.3,0.5-4.2,1.5-5.7c1-1.5,2.2-2.8,3.7-3.9c1.5-1.1,3-2.1,4.8-3c1.7-0.9,3.3-1.8,4.8-2.7
					c1.5-0.9,2.7-1.9,3.7-3.1c1-1.2,1.5-2.6,1.5-4.3c0-1.6-0.5-3.1-1.5-4.3c-1-1.2-2.2-1.8-3.7-1.8c-1.6,0-2.9,0.5-3.8,1.4
					c-0.9,0.9-1.4,2-1.7,3.1c-0.2,1.2-0.2,2.3,0.2,3.3c0.3,1.1,0.9,1.7,1.7,2c0.3,0.1,0.5,0.2,0.5,0.4c0.1,0.3,0.1,0.5,0,0.8
					c-0.3,0.7-0.8,1.2-1.5,1.5c-0.7,0.4-1.6,0.5-2.5,0.5c-0.7,0-1.4-0.1-2.2-0.4c-0.7-0.3-1.4-0.7-2-1.2s-1.1-1.2-1.4-2.1
					c-0.4-0.8-0.5-1.9-0.5-3c0-2.2,0.5-3.9,1.4-5.3c0.9-1.4,2-2.4,3.4-3.2c1.3-0.8,2.7-1.3,4.2-1.7c1.5-0.3,2.7-0.5,3.8-0.5
					c4.4,0,7.7,0.9,10.1,2.8c2.3,1.8,3.5,4.4,3.5,7.6c0,2.5-0.4,4.5-1.2,6.2c-0.8,1.7-1.9,3.1-3.1,4.3c-1.3,1.2-2.7,2.2-4.2,3
					c-1.6,0.8-3.1,1.6-4.6,2.4c-1.5,0.8-2.8,1.6-4,2.4c-1.2,0.8-2.1,1.9-2.7,3c1-0.7,2-1.2,2.9-1.5c0.9-0.3,1.8-0.4,2.6-0.4
					c0.8,0,1.6,0.1,2.3,0.3c0.7,0.2,1.4,0.4,2,0.7c0.6,0.3,1.2,0.5,1.7,0.7c0.5,0.2,0.9,0.3,1.3,0.3c1.1,0,2-0.2,2.6-0.7
					c0.7-0.5,1-1,1-1.8c0-0.4-0.1-0.6-0.2-0.8c-0.1-0.2-0.3-0.4-0.5-0.5c-0.1-0.1-0.2-0.3-0.2-0.5c0-0.3,0.1-0.4,0.2-0.5
					C829.4,550.9,829.9,550.7,830.6,550.7z"/>
				<path class="st0" d="M855.5,524c1.8,0,3.4,0.5,5,1.5c1.5,1,2.9,2.4,4,4.2c1.2,1.8,2.1,3.8,2.7,6.2c0.7,2.4,1,4.9,1,7.6
					s-0.3,5.3-1,7.7c-0.7,2.4-1.6,4.5-2.7,6.2c-1.2,1.8-2.5,3.2-4,4.2c-1.5,1-3.2,1.5-5,1.5c-1.8,0-3.4-0.5-5-1.5
					c-1.5-1-2.9-2.4-4-4.2c-1.2-1.8-2.1-3.8-2.7-6.2c-0.7-2.4-1-4.9-1-7.7s0.3-5.3,1-7.6c0.7-2.4,1.6-4.4,2.7-6.2
					c1.2-1.8,2.5-3.2,4-4.2C852.1,524.6,853.7,524,855.5,524z M855.5,559c0.7,0,1.4-0.4,2.1-1.2c0.7-0.8,1.2-1.9,1.7-3.3
					c0.5-1.4,0.9-3,1.1-4.9c0.3-1.9,0.4-3.9,0.4-6c0-2.1-0.1-4.1-0.4-6c-0.3-1.9-0.7-3.5-1.1-4.9c-0.5-1.4-1-2.5-1.7-3.3
					c-0.7-0.8-1.4-1.2-2.1-1.2c-0.7,0-1.4,0.4-2.1,1.2c-0.7,0.8-1.2,1.9-1.7,3.3c-0.5,1.4-0.9,3-1.1,4.9c-0.3,1.9-0.4,3.9-0.4,6
					c0,2.2,0.1,4.2,0.4,6c0.3,1.9,0.7,3.5,1.1,4.9c0.5,1.4,1,2.5,1.7,3.3C854.1,558.6,854.8,559,855.5,559z"/>
				<path class="st0" d="M888.1,562.3c0.3,0.2,0.4,0.3,0.3,0.6s-0.2,0.3-0.3,0.3H877c-0.1,0-0.3-0.1-0.3-0.3s0-0.4,0.3-0.6
					c0.3-0.2,0.7-0.6,1-1.1c0.4-0.5,0.5-1.5,0.5-2.9v-21.8c0-0.9-0.1-1.4-0.2-1.5c-0.1-0.2-0.3-0.3-0.5-0.3c-0.2,0-0.4-0.2-0.6-0.5
					c-0.1-0.3,0-0.6,0.1-0.8l1.2-1.4l5.9-7.5c0.1-0.3,0.4-0.4,0.8-0.4c0.3,0,0.6,0.1,0.9,0.4c0.3,0.3,0.4,0.6,0.4,1v33
					c0,1.4,0.2,2.4,0.5,2.9C887.5,561.7,887.8,562.1,888.1,562.3z"/>
				<path class="st0" d="M917.5,541.6c2.3,1.2,4,2.6,5,4.2c1.1,1.6,1.6,3.5,1.6,5.7c0,3.5-1.1,6.3-3.3,8.5
					c-2.2,2.2-5.8,3.2-10.6,3.2c-2.1,0-4-0.3-5.6-1c-1.6-0.6-3-1.5-4.1-2.5c-1.1-1.1-2-2.3-2.6-3.6s-0.9-2.8-0.9-4.3
					c0-4.2,1.9-7.6,5.8-10.2c-1.2-1.1-2.1-2.2-2.6-3.4c-0.6-1.2-0.9-2.7-0.9-4.3c0-1.2,0.3-2.4,0.8-3.5c0.5-1.1,1.3-2.2,2.3-3.1
					c1-0.9,2.2-1.7,3.6-2.2c1.4-0.6,3.1-0.9,4.9-0.9c2.3,0,4.3,0.3,5.9,0.8c1.6,0.5,2.8,1.2,3.8,2c1,0.8,1.6,1.8,2,2.9
					c0.4,1.1,0.6,2.2,0.6,3.3c0,1.3-0.2,2.5-0.5,3.4c-0.3,0.9-0.8,1.7-1.3,2.3c-0.5,0.6-1.1,1.1-1.8,1.5
					C918.8,540.8,918.2,541.2,917.5,541.6z M909.8,559.8c0.5,0,1.2-0.1,1.8-0.2c0.7-0.1,1.3-0.4,2-0.8c0.6-0.4,1.1-0.9,1.5-1.7
					c0.4-0.7,0.6-1.8,0.6-3c0-1.1-0.2-2-0.6-2.8c-0.4-0.8-0.9-1.6-1.6-2.3s-1.3-1.3-2.1-1.9c-0.8-0.6-1.6-1.1-2.3-1.6
					c-0.5-0.3-1-0.5-1.5-0.5c-1.1,0-1.9,0.5-2.5,1.6c-0.6,1.3-1.1,2.7-1.3,4.2c-0.2,1.5-0.1,3,0.2,4.3c0.4,1.3,1,2.4,2,3.3
					C906.9,559.4,908.2,559.8,909.8,559.8z M911.2,528.4c-0.3,0-0.7,0-1.2,0.1c-0.5,0.1-0.9,0.3-1.3,0.5c-0.4,0.3-0.8,0.7-1.1,1.2
					c-0.3,0.5-0.4,1.2-0.4,2.1c0,1.4,0.5,2.6,1.5,3.5c1,0.9,2,1.7,3,2.4c0.4,0.3,0.7,0.4,1,0.4c0.2,0,0.4,0,0.5-0.1
					c0.5-0.2,1-0.5,1.2-1.1c0.5-0.9,0.8-1.8,0.9-2.9c0.1-1,0.1-2-0.2-2.9c-0.3-0.9-0.7-1.7-1.3-2.3
					C913.1,528.7,912.3,528.4,911.2,528.4z"/>
			</g>
		</g>
	</g>
</g>
</svg>
