<svg xmlns="http://www.w3.org/2000/svg" viewBox="0 0 189.84 68.79"><defs><style>.cls-1{stroke:#000;stroke-miterlimit:10;}</style></defs><title>signature</title><g id="Layer_2" data-name="Layer 2"><g id="Layer_1-2" data-name="Layer 1"><path class="cls-1" d="M29,50.48a16.34,16.34,0,0,1-4.47-.62,16.92,16.92,0,0,1-4.16-1.79,15.9,15.9,0,0,1-3.49-2.85,12.54,12.54,0,0,1-2.42-3.8c-.4.26-1,.63-1.65,1.12s-1.43,1.06-2.22,1.7-1.59,1.32-2.4,2A28.4,28.4,0,0,0,6,48.42a14.3,14.3,0,0,0-1.62,2,3.28,3.28,0,0,0-.63,1.71c0,.24.09.38.26.42l.51.13-.21.08a.68.68,0,0,1-.2,0,.67.67,0,0,1-.45-.16.49.49,0,0,1-.19-.41,3.59,3.59,0,0,1,.62-1.86A14.2,14.2,0,0,1,5.7,48.31c.66-.73,1.4-1.46,2.21-2.2s1.62-1.42,2.43-2.06,1.57-1.21,2.27-1.71,1.29-.9,1.73-1.17c-.17-.71-.33-1.41-.49-2.12a9.62,9.62,0,0,1-.24-2.14,11.24,11.24,0,0,1,1-4.56,16,16,0,0,1,2.59-4.09,21.4,21.4,0,0,1,3.78-3.42,28.66,28.66,0,0,1,4.48-2.65,25.52,25.52,0,0,1,4.73-1.69,18.58,18.58,0,0,1,4.53-.6A8.56,8.56,0,0,1,39,21a6.61,6.61,0,0,1,2.84,3.4c.23-.15.64-.45,1.23-.88s1.25-1,2-1.52l2.33-1.84c.82-.66,1.59-1.27,2.29-1.86S51,17.18,51.5,16.73s.87-.75,1-.92a13.89,13.89,0,0,1,1.16-2.93,33.64,33.64,0,0,1,1.77-3.06A32.54,32.54,0,0,1,57.54,7a28.15,28.15,0,0,1,2.07-2.32,11.75,11.75,0,0,1,1.72-1.48c.51-.33.86-.43,1.08-.3s.38.6.17,1.22a9.83,9.83,0,0,1-1.1,2.17C60.94,7.1,60.29,8,59.53,9S58,10.84,57.17,11.74s-1.57,1.72-2.32,2.48S53.49,15.57,53,16a26.26,26.26,0,0,0-.81,5.22c-.1,1.77-.2,3.53-.31,5.28a24.06,24.06,0,0,1-1.12,5.8,28.52,28.52,0,0,1-2.46,5.57,30.6,30.6,0,0,1-3.6,5,25.25,25.25,0,0,1-4.55,4,22,22,0,0,1-5.3,2.68A17.79,17.79,0,0,1,29,50.48Zm12.3-25.84a5.36,5.36,0,0,0-1.08-1.89,6,6,0,0,0-1.65-1.29,7.91,7.91,0,0,0-2-.74,10,10,0,0,0-2.15-.24,16.49,16.49,0,0,0-4.29.61,25.5,25.5,0,0,0-4.53,1.7,25.86,25.86,0,0,0-4.32,2.61,22.1,22.1,0,0,0-3.65,3.34,16,16,0,0,0-2.53,3.91,10.29,10.29,0,0,0-.95,4.29,10.86,10.86,0,0,0,.18,2,8.61,8.61,0,0,0,.56,1.9l1.63-1Q22.79,36.14,29,32.47t12.3-7.7Zm-.2.58q-4.86,3.39-9.81,6.4T21.2,37.55c-1,.57-2.08,1.15-3.16,1.71A30.6,30.6,0,0,0,15,41.1a10.43,10.43,0,0,0,2.21,3.65,14.69,14.69,0,0,0,3.45,2.77,17.36,17.36,0,0,0,4.11,1.75,15.9,15.9,0,0,0,4.23.61A17.41,17.41,0,0,0,34.34,49a20.13,20.13,0,0,0,4.92-2.32,24.79,24.79,0,0,0,4.27-3.49A28.73,28.73,0,0,0,47,38.89,27.21,27.21,0,0,0,49.6,34,24.31,24.31,0,0,0,51,28.84a29.57,29.57,0,0,0,.35-3.06c.07-1,.13-2,.19-3.06s.15-2,.26-3.09a26,26,0,0,1,.54-3.15q-2.55,2.18-5.15,4.18t-5.32,4a5.38,5.38,0,0,1,.26,1.19c0,.4.06.81.06,1.22a8.35,8.35,0,0,1-1,3.95,11.79,11.79,0,0,1-2.58,3.3,12.56,12.56,0,0,1-3.58,2.26,10.45,10.45,0,0,1-4,.83l-.37,0a.31.31,0,0,1-.27-.23l.29-.29.16,0-.19.19v0l.32,0a9.19,9.19,0,0,0,3.79-.86A13,13,0,0,0,38.25,34a11.53,11.53,0,0,0,2.46-3.25A8.13,8.13,0,0,0,41.66,27c0-.34,0-.67,0-1a4.13,4.13,0,0,0-.21-1Zm12.11-9.93.72-.72c.37-.37.81-.83,1.33-1.39S56.34,12,57,11.32s1.2-1.37,1.79-2.08,1.14-1.4,1.67-2.08A21.42,21.42,0,0,0,61.7,5.29a7,7,0,0,0,.69-1.44c.12-.4.06-.66-.18-.79s-.4.09-.81.45A16.51,16.51,0,0,0,59.91,5c-.58.64-1.2,1.39-1.87,2.25S56.71,9,56.08,10s-1.2,1.86-1.71,2.79A15.5,15.5,0,0,0,53.22,15.29Z"/><path class="cls-1" d="M62.54,32a1,1,0,0,0,.24,0c.07,0,.11.05.11.16a1.43,1.43,0,0,1-.15.5q-.14.33-.33.75a7.32,7.32,0,0,0-.34.9,3.43,3.43,0,0,0-.14.92,1.32,1.32,0,0,0,.13.6.5.5,0,0,0,.51.27,5.34,5.34,0,0,0,2.17-.51A17.07,17.07,0,0,0,67,34.33c.76-.48,1.49-1,2.18-1.48s1.32-1,1.87-1.32a8,8,0,0,1-1.48,1.36,28.78,28.78,0,0,1-2.44,1.67A25.43,25.43,0,0,1,64.57,36a5.25,5.25,0,0,1-2,.57c-.79,0-1.19-.42-1.19-1.27a3.79,3.79,0,0,1,.21-1.31,12.21,12.21,0,0,1,.53-1.22,7.6,7.6,0,0,0-.66.55c-.3.28-.66.59-1.07.95s-.84.72-1.31,1.11-.93.74-1.38,1.06a10.53,10.53,0,0,1-1.28.8,2.26,2.26,0,0,1-1,.33c-.37,0-.55-.22-.55-.65a2.24,2.24,0,0,1,.37-1.07,8.6,8.6,0,0,1,1-1.32,17.64,17.64,0,0,1,1.36-1.39c.5-.46,1-.87,1.49-1.24A9,9,0,0,1,60.5,31a2.68,2.68,0,0,1,1.14-.34.82.82,0,0,1,.93.93ZM55.36,37.1a3.13,3.13,0,0,0,1.54-.61c.64-.4,1.31-.87,2-1.39s1.35-1.05,2-1.59l1.41-1.21a5.53,5.53,0,0,0-.13-.68.44.44,0,0,0-.45-.41,3.3,3.3,0,0,0-1.66.67,14.06,14.06,0,0,0-2,1.62,16.67,16.67,0,0,0-1.76,2A4.56,4.56,0,0,0,55.36,37.1Z"/><path class="cls-1" d="M65,40.65a20.74,20.74,0,0,0,4.44-1.2,43,43,0,0,0,4.51-2c1.48-.77,2.93-1.58,4.32-2.45s2.7-1.69,3.89-2.48l.36-.24.54-.37c.19-.13.37-.24.54-.34A1.06,1.06,0,0,1,84,31.4a.88.88,0,0,1-.24.22l-.45.34-.45.32-.3.21q-1.74,1.15-3.67,2.35c-1.29.8-2.62,1.57-4,2.29s-2.75,1.39-4.14,2a29.11,29.11,0,0,1-4.12,1.46,5.71,5.71,0,0,1-1,.22,2.71,2.71,0,0,0-.57.12,1.17,1.17,0,0,0-.47.3,8,8,0,0,0-.64.8.62.62,0,0,0-.06.26,24.31,24.31,0,0,1-.16,2.8,16.76,16.76,0,0,1-.5,2.5,19.12,19.12,0,0,1-.85,2.4c-.34.8-.74,1.65-1.21,2.54-.32.62-.78,1.45-1.38,2.47s-1.28,2.12-2,3.28-1.58,2.34-2.47,3.54A32.1,32.1,0,0,1,52.54,65a17.93,17.93,0,0,1-2.7,2.34,4.52,4.52,0,0,1-2.48.91,2.41,2.41,0,0,1-.6-.11.44.44,0,0,1-.36-.44A5.05,5.05,0,0,1,47.12,66c.48-.88,1.11-1.93,1.89-3.16s1.67-2.59,2.69-4.08,2-3,3.09-4.53,2.07-3,3.09-4.47l2.72-3.91q1.2-1.73,1.95-2.88a7.35,7.35,0,0,0,.79-1.38,2.85,2.85,0,0,0-.26-.59,5,5,0,0,0-.32-.48l-.29-.38a1,1,0,0,1-.16-.31l.29-.28a.63.63,0,0,1,.35.2c.11.12.21.24.31.37a1.52,1.52,0,0,0,.33.34.83.83,0,0,0,.48.14,5.13,5.13,0,0,0,.56-.61c.33-.38.73-.87,1.2-1.45l1.51-1.91c.53-.68,1-1.33,1.47-1.94s.83-1.12,1.14-1.55a6.27,6.27,0,0,0,.49-.73c-.53.34-1,.67-1.48,1s-.92.62-1.38.91a11.9,11.9,0,0,1-1.46.77,10.59,10.59,0,0,1-1.7.56v-.1A4.44,4.44,0,0,0,65.83,35c.66-.34,1.36-.75,2.1-1.22s1.44-.94,2.1-1.42a12.83,12.83,0,0,0,1.44-1.17l1.78-2.12c.84-1,1.81-2.12,2.89-3.37s2.23-2.53,3.43-3.83,2.32-2.46,3.38-3.47a22.58,22.58,0,0,1,2.75-2.34c.78-.55,1.29-.68,1.52-.4s.19.56,0,1a8.76,8.76,0,0,1-1,1.68q-.72,1-1.77,2.1c-.71.76-1.47,1.53-2.29,2.33s-1.67,1.6-2.55,2.39S77.84,26.75,77,27.45s-1.62,1.31-2.36,1.87-1.36,1-1.87,1.31a5.86,5.86,0,0,0-.78.82c-.4.46-.86,1-1.4,1.7s-1.1,1.39-1.69,2.17l-1.68,2.21-1.38,1.84c-.4.54-.65.89-.75,1.06Zm-1.54,2c-.32.34-.8.95-1.44,1.81s-1.37,1.9-2.19,3.11-1.71,2.52-2.66,3.95-1.9,2.88-2.85,4.34-1.86,2.88-2.74,4.26-1.66,2.61-2.35,3.71l-1.71,2.71c-.45.7-.71,1.11-.77,1.22a2.56,2.56,0,0,0,2.32-.29,12.33,12.33,0,0,0,2.77-2.21,33.78,33.78,0,0,0,2.9-3.43q1.45-2,2.74-3.92c.85-1.31,1.61-2.54,2.27-3.68s1.16-2.06,1.5-2.74a30.18,30.18,0,0,0,1.64-3.95,13.31,13.31,0,0,0,.67-4.22l0-.67ZM64,40.91l-.48-.1.16.58Zm9.48-11.24L75.57,28c.83-.66,1.72-1.39,2.67-2.2s1.91-1.64,2.88-2.53S83,21.55,83.8,20.67a23.58,23.58,0,0,0,2.06-2.51A6.94,6.94,0,0,0,87,16a13.94,13.94,0,0,0-2.26,1.6c-.78.66-1.58,1.39-2.39,2.19s-1.61,1.65-2.41,2.53S78.33,24.09,77.57,25l-2.18,2.53C74.7,28.31,74.06,29,73.49,29.67Z"/><path class="cls-1" d="M86.39,32l.24,0c.08,0,.11.05.11.16a1.36,1.36,0,0,1-.14.5l-.34.75a6,6,0,0,0-.33.9,3.1,3.1,0,0,0-.15.92,1.47,1.47,0,0,0,.13.6.52.52,0,0,0,.51.27,5.39,5.39,0,0,0,2.18-.51,17.7,17.7,0,0,0,2.29-1.24c.76-.48,1.48-1,2.18-1.48s1.32-1,1.87-1.32a8.16,8.16,0,0,1-1.49,1.36c-.74.57-1.55,1.12-2.43,1.67A25.55,25.55,0,0,1,88.42,36a5.26,5.26,0,0,1-2,.57c-.79,0-1.19-.42-1.19-1.27a3.79,3.79,0,0,1,.21-1.31A10.26,10.26,0,0,1,86,32.72a7.6,7.6,0,0,0-.66.55l-1.07.95L83,35.33c-.47.39-.92.74-1.37,1.06a11.36,11.36,0,0,1-1.28.8,2.29,2.29,0,0,1-1,.33c-.36,0-.54-.22-.54-.65a2.14,2.14,0,0,1,.37-1.07,8.49,8.49,0,0,1,1-1.32c.41-.46.86-.93,1.36-1.39s1-.87,1.49-1.24A9.08,9.08,0,0,1,84.36,31a2.69,2.69,0,0,1,1.13-.34.82.82,0,0,1,.93.93ZM79.22,37.1a3.19,3.19,0,0,0,1.54-.61c.64-.4,1.3-.87,2-1.39s1.35-1.05,2-1.59l1.4-1.21c0-.17-.06-.4-.12-.68s-.22-.41-.45-.41a3.33,3.33,0,0,0-1.67.67,14.57,14.57,0,0,0-2,1.62,16.78,16.78,0,0,0-1.77,2A4.36,4.36,0,0,0,79.22,37.1Z"/><path class="cls-1" d="M98,32l.24,0c.08,0,.11.05.11.16a1.6,1.6,0,0,1-.14.5l-.34.75a6,6,0,0,0-.33.9,3.1,3.1,0,0,0-.15.92,1.32,1.32,0,0,0,.13.6.52.52,0,0,0,.51.27,5.39,5.39,0,0,0,2.18-.51,17.7,17.7,0,0,0,2.29-1.24c.76-.48,1.48-1,2.18-1.48s1.31-1,1.87-1.32A8.16,8.16,0,0,1,105,32.89c-.74.57-1.55,1.12-2.43,1.67A25.55,25.55,0,0,1,100,36a5.25,5.25,0,0,1-2,.57c-.79,0-1.18-.42-1.18-1.27A3.79,3.79,0,0,1,97,33.94a10.26,10.26,0,0,1,.53-1.22,7.6,7.6,0,0,0-.66.55l-1.07.95-1.32,1.11c-.47.39-.92.74-1.37,1.06a11.36,11.36,0,0,1-1.28.8,2.29,2.29,0,0,1-1,.33c-.36,0-.54-.22-.54-.65a2.14,2.14,0,0,1,.37-1.07,8.49,8.49,0,0,1,1-1.32c.41-.46.86-.93,1.36-1.39s1-.87,1.49-1.24A9.08,9.08,0,0,1,95.92,31a2.65,2.65,0,0,1,1.13-.34.82.82,0,0,1,.93.93ZM90.78,37.1a3.13,3.13,0,0,0,1.53-.61c.65-.4,1.31-.87,2-1.39s1.35-1.05,2-1.59l1.4-1.21c0-.17-.06-.4-.12-.68s-.22-.41-.45-.41a3.33,3.33,0,0,0-1.67.67,14.57,14.57,0,0,0-2,1.62,16.78,16.78,0,0,0-1.77,2A4.36,4.36,0,0,0,90.78,37.1Z"/><path class="cls-1" d="M148.45,29.19c-1,.11-2,.19-3,.24s-2,.08-3,.08c-.64,0-1.3,0-2-.05s-1.36-.05-2.05-.05-1.36,0-2,.07a11.7,11.7,0,0,0-2,.29,5.4,5.4,0,0,0-1.76.77,6.87,6.87,0,0,0-1.49,1.31,6.37,6.37,0,0,0-1,1.68,4.7,4.7,0,0,0-.38,1.87,2.15,2.15,0,0,0,.24,1,.83.83,0,0,0,.88.43l.06.07-.16.16a1,1,0,0,1-1-.5,2.35,2.35,0,0,1-.29-1.13,4.51,4.51,0,0,1,.32-1.67,8.48,8.48,0,0,1,.77-1.5,5.86,5.86,0,0,1,1.55-1.65,6.83,6.83,0,0,1,1.91-.95,10.67,10.67,0,0,1,2.14-.42q1.13-.09,2.28-.09c1.75,0,3.49,0,5.23-.05s3.48-.13,5.2-.3a5.94,5.94,0,0,0,1.08-.9c.65-.6,1.49-1.38,2.51-2.35s2.19-2.1,3.49-3.37l4-3.92,4.12-4c1.36-1.35,2.63-2.59,3.79-3.72l3-2.94c.84-.84,1.43-1.41,1.78-1.73l0-.13a85.75,85.75,0,0,1-7.05,5.11,52.64,52.64,0,0,1-7.62,4.11,48.94,48.94,0,0,1-8.47,2.82A48.6,48.6,0,0,1,140,19c-1.13,0-2.28.06-3.45,0s-2.36,0-3.54,0-2.36.08-3.53.18a27.18,27.18,0,0,0-3.41.49,9.86,9.86,0,0,0-2,.68,10.69,10.69,0,0,0-2,1.18,7.31,7.31,0,0,0-1.59,1.6,3.27,3.27,0,0,0-.64,1.95,1.71,1.71,0,0,0,.21.88,3.29,3.29,0,0,0,.48.66c.18.19.36.36.53.51a1.25,1.25,0,0,1,.35.45.44.44,0,0,1-.19.07,1.16,1.16,0,0,1-.74-.28,2.63,2.63,0,0,1-.61-.67,4,4,0,0,1-.41-.83,2.22,2.22,0,0,1-.16-.79,2.6,2.6,0,0,1,.19-1,6.25,6.25,0,0,1,1.63-2.5,8.8,8.8,0,0,1,2.48-1.58,13.65,13.65,0,0,1,3-.88,29.77,29.77,0,0,1,3.27-.39c1.1-.06,2.17-.09,3.22-.09H136c2.52,0,5-.14,7.48-.34a44.41,44.41,0,0,0,7.35-1.23,38.53,38.53,0,0,0,5.5-1.83,54.37,54.37,0,0,0,5.51-2.64c1.81-1,3.6-2.07,5.35-3.25s3.43-2.39,5-3.65a6.5,6.5,0,0,0,.56-.46,8.87,8.87,0,0,1,.72-.61c.25-.2.5-.38.73-.53a2.5,2.5,0,0,1,.61-.29l.13.26,0,.13c.62-.39,1.25-.8,1.89-1.24s1.29-.84,2-1.21a11.7,11.7,0,0,1,2.08-.93A6.63,6.63,0,0,1,183.09.5a2.54,2.54,0,0,1,2,.82,3.13,3.13,0,0,1,.71,2.13,7.84,7.84,0,0,1-.4,2.4,14.58,14.58,0,0,1-1,2.37A19.17,19.17,0,0,1,183,10.41c-.52.69-1,1.33-1.52,1.91A50.53,50.53,0,0,1,171,21.44a47.64,47.64,0,0,1-12.65,5.83l-.51.13a4.61,4.61,0,0,0-.64.16,4.18,4.18,0,0,0-.6.22,1,1,0,0,0-.4.32,15.82,15.82,0,0,0-.83,1.84c-.34.87-.71,1.88-1.12,3s-.82,2.38-1.23,3.68-.81,2.57-1.17,3.81-.67,2.39-.93,3.44a18.59,18.59,0,0,0-.48,2.55.59.59,0,0,1,0,.13.21.21,0,0,0,0,.13l-.16.12a.73.73,0,0,1-.26-.11.21.21,0,0,1-.09-.24,42.7,42.7,0,0,1,.86-4.35q.58-2.31,1.33-4.69c.5-1.59,1-3.18,1.63-4.77s1.2-3.14,1.84-4.63c-.23.06-.67.15-1.32.25l-2,.36c-.7.12-1.35.25-1.93.36a2.72,2.72,0,0,0-1,.31c-.54.47-1.23,1.1-2.08,1.9L144.3,33.9,140.91,37q-1.82,1.65-3.69,3.27t-3.73,3.09c-1.24,1-2.41,1.84-3.54,2.59a25,25,0,0,1-3.09,1.79,5.77,5.77,0,0,1-2.37.68,1.19,1.19,0,0,1-.51-.12.4.4,0,0,1-.22-.46l.16-.42a3.19,3.19,0,0,0,.11.34q.07.21.24.21a5.32,5.32,0,0,0,2.24-.66,25.24,25.24,0,0,0,3-1.74c1.08-.73,2.23-1.57,3.45-2.53s2.43-2,3.65-3,2.41-2.11,3.6-3.19l3.33-3c1-1,2-1.81,2.79-2.56s1.48-1.36,2-1.81l.22-.16Zm1.57-.54c.27,0,.72-.08,1.32-.18l1.88-.3c.64-.11,1.21-.23,1.73-.37a2.49,2.49,0,0,0,1-.4q1.64-3,3.46-5.85T163.24,16l.16-.32ZM183.09,1a8.16,8.16,0,0,0-3.36.85,23.29,23.29,0,0,0-3.81,2.29,43,43,0,0,0-4,3.35q-2.05,1.9-4,4.05t-3.78,4.38q-1.82,2.25-3.31,4.36t-2.62,4a30.2,30.2,0,0,0-1.68,3.2l.2,0a55.44,55.44,0,0,0,7-2.59,54.52,54.52,0,0,0,6.77-3.64,51.12,51.12,0,0,0,6.15-4.58,38.75,38.75,0,0,0,5.15-5.43c.41-.51.82-1.07,1.25-1.69a16.49,16.49,0,0,0,1.15-1.94A13.55,13.55,0,0,0,185,5.5a7,7,0,0,0,.34-2.09,2.62,2.62,0,0,0-.56-1.76A2.2,2.2,0,0,0,183.09,1Z"/><path class="cls-1" d="M171.57,28.87c-.39.28-.89.65-1.51,1.12s-1.27.93-1.95,1.38-1.35.84-2,1.18a3.5,3.5,0,0,1-1.63.51l-.13-.12.16-.13a5,5,0,0,0,1.25-.48,18.82,18.82,0,0,0,1.65-.95c.59-.37,1.19-.78,1.81-1.23s1.2-.89,1.76-1.33,1-.85,1.47-1.25a11.55,11.55,0,0,0,1-1l1.13-1.37c.5-.6,1.09-1.29,1.76-2.07s1.4-1.61,2.18-2.49,1.57-1.77,2.39-2.65,1.61-1.71,2.41-2.51,1.56-1.51,2.26-2.13a18.86,18.86,0,0,1,1.89-1.49,2.7,2.7,0,0,1,1.31-.56.77.77,0,0,1,.42.11.36.36,0,0,1,.13.37,4.31,4.31,0,0,1-1,2.07A30.23,30.23,0,0,1,186,16.51c-.93,1-2,1.95-3.12,3s-2.25,2-3.33,2.92-2.07,1.77-3,2.53-1.59,1.36-2.06,1.81a27.61,27.61,0,0,0-2.15,2.41q-1.28,1.59-2.77,3.61c-1,1.34-2,2.78-3.05,4.3s-2,3-3,4.53-1.82,2.92-2.61,4.26-1.42,2.51-1.89,3.49c-.19.43-.37.86-.54,1.28a3.64,3.64,0,0,0-.26,1.35.54.54,0,0,0,.61.61,3.27,3.27,0,0,0,1.55-.72c.7-.48,1.51-1.12,2.44-1.91s1.94-1.7,3-2.74,2.2-2.11,3.33-3.23,2.25-2.24,3.35-3.36l3.06-3.13,2.48-2.54q1.06-1.11,1.62-1.62l.72-.72a4.17,4.17,0,0,1,.78-.62l0,0a12.22,12.22,0,0,1-1.1,1.28c-.63.68-1.43,1.54-2.4,2.56s-2.07,2.16-3.28,3.4L170.65,43c-1.29,1.29-2.57,2.52-3.86,3.72s-2.45,2.26-3.52,3.2a34.37,34.37,0,0,1-2.8,2.26,3.93,3.93,0,0,1-1.68.85,1,1,0,0,1-.85-.4,1.51,1.51,0,0,1-.3-.92,7.3,7.3,0,0,1,.83-2.77,45.38,45.38,0,0,1,2.13-4c.86-1.49,1.83-3,2.9-4.64s2.11-3.16,3.13-4.63,2-2.81,2.87-4S171.07,29.51,171.57,28.87Zm17.26-17a4.15,4.15,0,0,0-1.57,1c-.71.57-1.52,1.29-2.44,2.16s-1.88,1.81-2.88,2.85-2,2.05-2.88,3.06-1.75,1.93-2.48,2.78-1.29,1.53-1.65,2c1.11-.94,2.32-1.94,3.65-3s2.62-2.18,3.9-3.35a47.4,47.4,0,0,0,3.61-3.62A19.62,19.62,0,0,0,188.83,11.84Z"/><path d="M0,66.05s68-12,188-10h0a63.34,63.34,0,0,1-15.93,1.88C148.33,57.71,74.84,57.82,0,66.05Z"/></g></g></svg>